# Blender 3.1.0
# www.blender.org
o SM_DoorSliding_Wood_Head_01
v 0.002000 2.362000 0.110000
v 0.000000 2.362000 0.108000
v 0.002000 2.360000 0.108000
v 0.001235 2.362000 0.109847
v 0.000586 2.362000 0.109414
v 0.002000 2.361235 0.109847
v 0.001215 2.361216 0.109664
v 0.000687 2.361255 0.109312
v 0.000845 2.360846 0.109154
v 0.000152 2.361235 0.108000
v 0.000586 2.360586 0.108000
v 0.000152 2.362000 0.108765
v 0.000336 2.361216 0.108784
v 0.000687 2.360688 0.108744
v 0.002000 2.360152 0.108765
v 0.002000 2.360586 0.109414
v 0.001235 2.360152 0.108000
v 0.001215 2.360336 0.108784
v 0.001255 2.360688 0.109312
v 0.002000 2.399992 0.108000
v 0.000000 2.397992 0.108000
v 0.002000 2.397992 0.110000
v 0.001235 2.399840 0.108000
v 0.000586 2.399407 0.108000
v 0.002000 2.399840 0.108765
v 0.001215 2.399657 0.108784
v 0.000687 2.399305 0.108744
v 0.000845 2.399147 0.109154
v 0.000152 2.397992 0.108765
v 0.000586 2.397992 0.109414
v 0.000152 2.398758 0.108000
v 0.000336 2.398777 0.108784
v 0.000687 2.398737 0.109312
v 0.002000 2.398758 0.109847
v 0.002000 2.399407 0.109414
v 0.001235 2.397992 0.109847
v 0.001215 2.398777 0.109664
v 0.001255 2.399305 0.109312
v 0.002000 2.360000 0.002000
v 0.000000 2.362000 0.002000
v 0.002000 2.362000 -0.000000
v 0.001235 2.360152 0.002000
v 0.000586 2.360586 0.002000
v 0.002000 2.360152 0.001235
v 0.001215 2.360336 0.001215
v 0.000687 2.360688 0.001255
v 0.000845 2.360846 0.000845
v 0.000152 2.362000 0.001235
v 0.000586 2.362000 0.000586
v 0.000152 2.361235 0.002000
v 0.000336 2.361216 0.001215
v 0.000687 2.361255 0.000687
v 0.002000 2.361235 0.000152
v 0.002000 2.360586 0.000586
v 0.001235 2.362000 0.000152
v 0.001215 2.361216 0.000336
v 0.001255 2.360688 0.000687
v 0.002000 2.397992 -0.000000
v 0.000000 2.397992 0.002000
v 0.002000 2.399992 0.002000
v 0.001235 2.397992 0.000152
v 0.000586 2.397992 0.000586
v 0.002000 2.398758 0.000152
v 0.001215 2.398777 0.000336
v 0.000687 2.398737 0.000687
v 0.000845 2.399147 0.000845
v 0.000152 2.398758 0.002000
v 0.000586 2.399407 0.002000
v 0.000152 2.397992 0.001235
v 0.000336 2.398777 0.001215
v 0.000687 2.399305 0.001255
v 0.002000 2.399840 0.001235
v 0.002000 2.399407 0.000586
v 0.001235 2.399840 0.002000
v 0.001215 2.399657 0.001215
v 0.001255 2.399305 0.000687
v 0.998000 2.397992 0.110000
v 1.000000 2.397992 0.108000
v 0.998000 2.399992 0.108000
v 0.998765 2.397992 0.109847
v 0.999414 2.397992 0.109414
v 0.998000 2.398758 0.109847
v 0.998785 2.398777 0.109664
v 0.999313 2.398737 0.109312
v 0.999155 2.399147 0.109154
v 0.999848 2.398758 0.108000
v 0.999414 2.399407 0.108000
v 0.999848 2.397992 0.108765
v 0.999664 2.398777 0.108784
v 0.999313 2.399305 0.108744
v 0.998000 2.399840 0.108765
v 0.998000 2.399407 0.109414
v 0.998765 2.399840 0.108000
v 0.998785 2.399657 0.108784
v 0.998745 2.399305 0.109312
v 0.998000 2.360000 0.002000
v 0.998000 2.362000 -0.000000
v 1.000000 2.362000 0.002000
v 0.998000 2.360152 0.001235
v 0.998000 2.360586 0.000586
v 0.998765 2.360152 0.002000
v 0.998785 2.360336 0.001215
v 0.998745 2.360688 0.000687
v 0.999155 2.360846 0.000845
v 0.998765 2.362000 0.000152
v 0.999414 2.362000 0.000586
v 0.998000 2.361235 0.000152
v 0.998785 2.361216 0.000336
v 0.999313 2.361255 0.000687
v 0.999848 2.361235 0.002000
v 0.999414 2.360586 0.002000
v 0.999848 2.362000 0.001235
v 0.999664 2.361216 0.001215
v 0.999313 2.360688 0.001255
v 0.998000 2.362000 0.110000
v 0.998000 2.360000 0.108000
v 1.000000 2.362000 0.108000
v 0.998000 2.361235 0.109847
v 0.998000 2.360586 0.109414
v 0.998765 2.362000 0.109847
v 0.998785 2.361216 0.109664
v 0.998745 2.360688 0.109312
v 0.999155 2.360846 0.109154
v 0.998765 2.360152 0.108000
v 0.999414 2.360586 0.108000
v 0.998000 2.360152 0.108765
v 0.998785 2.360336 0.108784
v 0.999313 2.360688 0.108744
v 0.999848 2.362000 0.108765
v 0.999414 2.362000 0.109414
v 0.999848 2.361235 0.108000
v 0.999664 2.361216 0.108784
v 0.999313 2.361255 0.109312
v 0.998000 2.399992 0.002000
v 1.000000 2.397992 0.002000
v 0.998000 2.397992 -0.000000
v 0.998765 2.399840 0.002000
v 0.999414 2.399407 0.002000
v 0.998000 2.399840 0.001235
v 0.998785 2.399657 0.001215
v 0.999313 2.399305 0.001255
v 0.999155 2.399147 0.000845
v 0.999848 2.397992 0.001235
v 0.999414 2.397992 0.000586
v 0.999848 2.398758 0.002000
v 0.999664 2.398777 0.001215
v 0.999313 2.398737 0.000687
v 0.998000 2.398758 0.000152
v 0.998000 2.399407 0.000586
v 0.998765 2.397992 0.000152
v 0.998785 2.398777 0.000336
v 0.998745 2.399305 0.000687
vn -0.0000 -0.0000 -1.0000
vn 1.0000 -0.0000 -0.0000
vn -1.0000 -0.0000 -0.0000
vn -0.0000 -1.0000 -0.0000
vn -0.0000 1.0000 -0.0000
vn -0.2050 -0.2049 0.9571
vn -0.5499 -0.1818 0.8152
vn -0.1818 -0.5499 0.8152
vn -0.4933 -0.4931 0.7166
vn -0.9571 -0.2049 0.2049
vn -0.8152 -0.5499 0.1818
vn -0.8152 -0.1818 0.5500
vn -0.7167 -0.4932 0.4931
vn -0.2049 -0.9571 0.2049
vn -0.1815 -0.8152 0.5500
vn -0.5499 -0.8152 0.1818
vn -0.4933 -0.7165 0.4931
vn -0.2047 0.9571 0.2049
vn -0.5498 0.8153 0.1818
vn -0.1817 0.8152 0.5500
vn -0.4933 0.7166 0.4932
vn -0.9571 0.2049 0.2049
vn -0.8152 0.1818 0.5500
vn -0.8152 0.5499 0.1818
vn -0.7167 0.4932 0.4931
vn -0.2049 0.2049 0.9571
vn -0.1818 0.5499 0.8152
vn -0.5499 0.1818 0.8152
vn -0.4932 0.4932 0.7166
vn -0.2047 -0.9571 -0.2049
vn -0.5499 -0.8152 -0.1818
vn -0.1816 -0.8152 -0.5500
vn -0.4933 -0.7166 -0.4932
vn -0.9571 -0.2049 -0.2049
vn -0.8151 -0.1818 -0.5501
vn -0.8152 -0.5499 -0.1818
vn -0.7168 -0.4931 -0.4930
vn -0.2050 -0.2049 -0.9571
vn -0.1817 -0.5500 -0.8152
vn -0.5499 -0.1818 -0.8152
vn -0.4932 -0.4931 -0.7166
vn -0.2050 0.2049 -0.9571
vn -0.5498 0.1818 -0.8153
vn -0.1820 0.5499 -0.8151
vn -0.4933 0.4931 -0.7166
vn -0.9571 0.2049 -0.2049
vn -0.8151 0.5500 -0.1818
vn -0.8151 0.1818 -0.5500
vn -0.7169 0.4931 -0.4930
vn -0.2049 0.9571 -0.2049
vn -0.1817 0.8152 -0.5500
vn -0.5499 0.8152 -0.1818
vn -0.4931 0.7167 -0.4932
vn 0.2049 0.2049 0.9571
vn 0.5499 0.1818 0.8152
vn 0.1819 0.5499 0.8152
vn 0.4932 0.4931 0.7167
vn 0.9571 0.2049 0.2049
vn 0.8152 0.5499 0.1818
vn 0.8152 0.1818 0.5500
vn 0.7168 0.4931 0.4929
vn 0.2047 0.9571 0.2049
vn 0.1817 0.8152 0.5500
vn 0.5499 0.8152 0.1818
vn 0.4934 0.7165 0.4931
vn 0.2049 -0.9571 -0.2049
vn 0.1817 -0.8152 -0.5500
vn 0.5499 -0.8152 -0.1818
vn 0.4934 -0.7165 -0.4931
vn 0.2050 -0.2049 -0.9571
vn 0.5500 -0.1818 -0.8152
vn 0.1819 -0.5499 -0.8152
vn 0.4933 -0.4931 -0.7166
vn 0.9571 -0.2049 -0.2049
vn 0.8152 -0.5500 -0.1818
vn 0.8151 -0.1818 -0.5500
vn 0.7167 -0.4932 -0.4930
vn 0.2050 -0.2049 0.9571
vn 0.1818 -0.5500 0.8151
vn 0.5499 -0.1818 0.8152
vn 0.4933 -0.4931 0.7166
vn 0.2048 -0.9571 0.2049
vn 0.5498 -0.8152 0.1819
vn 0.1816 -0.8152 0.5500
vn 0.4934 -0.7165 0.4931
vn 0.9571 -0.2049 0.2049
vn 0.8152 -0.1818 0.5499
vn 0.8152 -0.5499 0.1819
vn 0.7167 -0.4932 0.4930
vn 0.2048 0.9571 -0.2049
vn 0.5499 0.8152 -0.1818
vn 0.1817 0.8152 -0.5500
vn 0.4934 0.7165 -0.4931
vn 0.9571 0.2049 -0.2049
vn 0.8151 0.1819 -0.5500
vn 0.8151 0.5500 -0.1819
vn 0.7167 0.4932 -0.4930
vn 0.2050 0.2049 -0.9571
vn 0.1819 0.5500 -0.8151
vn 0.5499 0.1818 -0.8152
vn 0.4932 0.4931 -0.7167
vn -0.0000 -0.1951 0.9808
vn -0.0000 -0.5555 0.8315
vn -0.0000 -0.8315 0.5555
vn -0.0000 -0.9808 0.1952
vn -0.0000 0.1951 -0.9808
vn -0.0000 0.5555 -0.8315
vn -0.0000 0.8315 -0.5555
vn -0.0000 0.9808 -0.1952
vn -0.1949 0.9808 -0.0000
vn -0.5556 0.8315 -0.0000
vn -0.8315 0.5555 -0.0000
vn -0.9808 0.1951 -0.0000
vn -0.9808 -0.1951 -0.0000
vn -0.8315 -0.5555 -0.0000
vn -0.5556 -0.8315 -0.0000
vn -0.1949 -0.9808 -0.0000
vn -0.1951 -0.0000 -0.9808
vn -0.5556 -0.0000 -0.8315
vn -0.8315 -0.0000 -0.5556
vn -0.9808 -0.0000 -0.1951
vn -0.9808 -0.0000 0.1951
vn -0.8315 -0.0000 0.5556
vn -0.5556 -0.0000 0.8315
vn -0.1951 -0.0000 0.9808
vn -0.0000 0.1951 0.9808
vn -0.0000 0.5555 0.8315
vn -0.0000 0.8315 0.5555
vn -0.0000 0.9808 0.1952
vn -0.0000 -0.1951 -0.9808
vn -0.0000 -0.5555 -0.8315
vn -0.0000 -0.8315 -0.5555
vn -0.0000 -0.9808 -0.1952
vn 0.9808 -0.0000 -0.1951
vn 0.8315 -0.0000 -0.5556
vn 0.5556 -0.0000 -0.8314
vn 0.1951 -0.0000 -0.9808
vn 0.9808 0.1951 -0.0000
vn 0.8315 0.5556 -0.0000
vn 0.5556 0.8315 -0.0000
vn 0.1949 0.9808 -0.0000
vn 0.1953 -0.9808 -0.0000
vn 0.5553 -0.8316 -0.0000
vn 0.8316 -0.5554 -0.0000
vn 0.9808 -0.1952 -0.0000
vn 0.1951 -0.0000 0.9808
vn 0.5556 -0.0000 0.8314
vn 0.8314 -0.0000 0.5556
vn 0.9808 -0.0000 0.1951
vn -0.0000 -0.0000 1.0000
vt -1.997306 -3.355910
vt 3.342846 -2.884540
vt 3.715193 -3.355923
vt -1.997306 -3.359743
vt 3.419872 -2.884540
vt -1.997306 -3.365927
vt -1.995366 -3.355910
vt -1.995318 -3.359839
vt -1.995419 -3.365927
vt 3.527960 -2.884540
vt -1.994380 -3.365927
vt 3.666306 -2.884541
vt 3.710126 -3.361706
vt 3.447283 -2.884540
vt 3.606447 -2.884540
vt 3.715193 -3.365939
vt 3.375617 -2.884539
vt 3.486526 -2.884540
vt 3.645053 -2.884541
vt 3.713306 -3.365939
vt 3.713254 -3.355923
vt -1.992238 -3.355911
vt 3.710126 -3.355923
vt 3.715194 -3.359756
vt 3.713205 -3.359852
vt -1.992238 -3.359640
vt 3.710126 -3.359652
vt 3.715192 -3.355922
vt -1.829968 -2.884523
vt -2.088502 -3.355906
vt 3.715193 -3.359755
vt 3.715192 -3.365938
vt -2.093569 -2.884523
vt 3.713253 -3.355922
vt 3.713204 -3.359851
vt 3.713305 -3.365938
vt -2.093569 -2.884522
vt 3.712266 -3.365938
vt -1.970880 -2.884523
vt -2.093570 -3.361689
vt -1.823063 -2.884523
vt -1.803315 -2.884523
vt -2.088502 -3.365922
vt -1.934405 -2.884523
vt -1.932977 -2.884523
vt -1.911403 -2.884523
vt -2.090389 -3.365922
vt -2.090441 -3.355906
vt -2.093570 -3.355906
vt 3.710125 -3.355922
vt -2.088502 -3.359739
vt -2.090490 -3.359835
vt 3.710125 -3.359652
vt -2.093570 -3.359635
vt 3.983761 -3.355922
vt -1.920259 -2.884528
vt -1.997284 -3.355910
vt 3.983761 -3.359755
vt -1.888538 -2.884528
vt 3.983761 -3.365938
vt 3.985701 -3.355922
vt 3.985749 -3.359851
vt 3.985648 -3.365938
vt -1.927145 -2.884528
vt 3.986687 -3.365938
vt -1.994359 -2.884528
vt -1.992217 -3.361693
vt -1.953031 -2.884528
vt -1.997284 -3.365927
vt -1.997285 -2.884527
vt -1.911693 -2.884528
vt -1.948085 -2.884528
vt -1.995398 -2.884528
vt -1.995397 -3.365927
vt -1.995345 -3.355911
vt -1.992217 -3.355911
vt 3.988829 -3.355922
vt -1.997284 -3.359744
vt -1.995296 -3.359839
vt 3.988829 -3.359651
vt -1.992217 -3.359640
vt -2.088482 -3.355910
vt -2.061830 -2.884526
vt 3.983761 -3.355922
vt -2.088482 -3.359743
vt -2.088482 -3.365926
vt -2.088483 -2.884527
vt -2.090421 -3.355909
vt -2.090470 -3.359838
vt -2.090369 -3.365926
vt -2.090370 -2.884526
vt -2.091408 -3.365926
vt -2.093551 -2.884526
vt 3.988829 -3.361705
vt -2.070395 -2.884526
vt 3.983761 -3.365939
vt -2.093551 -2.884526
vt -2.068735 -2.884526
vt -2.074675 -2.884527
vt -2.093551 -2.884526
vt 3.985648 -3.365939
vt 3.985700 -3.355922
vt -2.093550 -3.355910
vt 3.988829 -3.355923
vt 3.983761 -3.359756
vt 3.985749 -3.359852
vt -2.093550 -3.359639
vt 3.988829 -3.359652
vt -2.088493 1.632169
vt -1.719835 7.675829
vt 3.715193 1.632150
vt -2.088493 1.636002
vt -2.088493 1.642185
vt -1.803297 7.675829
vt -2.090432 1.632169
vt -2.090481 1.636098
vt -2.090380 1.642185
vt -1.911385 7.675830
vt -2.091419 1.642185
vt -2.046810 7.675830
vt 3.710125 1.637932
vt -1.824154 7.675829
vt -1.982961 7.675830
vt 3.715193 1.642166
vt -1.755128 7.675829
vt -1.866032 7.675829
vt -2.024141 7.675830
vt 3.713306 1.642166
vt 3.713253 1.632150
vt -2.093561 1.632169
vt 3.710125 1.632150
vt 3.715193 1.635983
vt 3.713205 1.636078
vt -2.093561 1.635899
vt 3.710125 1.635879
vt 3.983762 1.632150
vt -1.997293 1.632171
vt 3.956635 7.675811
vt 3.985701 1.632150
vt -1.992225 1.632171
vt 3.988829 1.632150
vt 3.983762 1.635983
vt 3.985749 1.636079
vt 3.988829 1.635880
vt -1.992225 1.635901
vt 3.988829 1.637932
vt -1.994368 1.642187
vt 3.986688 7.675811
vt -1.997293 1.636004
vt 3.988830 7.675811
vt -1.997293 1.642187
vt -1.995354 1.632171
vt -1.995305 1.636100
vt -1.995406 1.642187
vt 3.988830 7.675811
vt 3.963380 7.675811
vt 3.983762 1.642166
vt 3.983762 7.675811
vt 3.965602 7.675811
vt 3.969673 7.675811
vt 3.985649 1.642166
vt 3.985649 7.675811
vt -1.997297 1.632171
vt 3.715193 1.632150
vt 3.452067 7.675812
vt -1.995357 1.632171
vt -1.992229 1.632172
vt 3.710126 1.632150
vt -1.997297 1.636004
vt -1.995308 1.636100
vt -1.992229 1.635901
vt 3.710126 1.635880
vt -1.992229 1.637954
vt 3.712268 1.642166
vt 3.587437 7.675811
vt 3.715194 1.635983
vt 3.715193 1.642166
vt 3.715193 7.675810
vt 3.713254 1.632150
vt 3.713206 1.636079
vt 3.713306 1.642166
vt 3.713306 7.675811
vt 3.443100 7.675811
vt -1.997296 1.642187
vt 3.419873 7.675812
vt 3.556386 7.675811
vt 3.552896 7.675812
vt -1.995409 1.642187
vt 3.527961 7.675812
vt 3.983762 1.632150
vt 3.905367 7.675811
vt -2.088490 1.632170
vt 3.983762 1.635983
vt 3.878241 7.675811
vt 3.983762 1.642166
vt 3.985701 1.632150
vt 3.985749 1.636079
vt 3.985649 1.642166
vt 3.919421 7.675811
vt 3.986687 1.642166
vt 3.988830 7.675811
vt -2.093558 1.637953
vt 3.940660 7.675811
vt 3.988830 7.675811
vt -2.088490 1.642187
vt 3.898623 7.675811
vt 3.937699 7.675811
vt 3.988830 7.675811
vt -2.090378 1.642187
vt -2.090429 1.632170
vt -2.093558 1.632170
vt 3.988829 1.632150
vt -2.088490 1.636004
vt -2.090478 1.636099
vt 3.988829 1.635880
vt -2.093558 1.635900
s 0
f 97/137/1 41/57/1 58/82/1 136/192/1
f 98/138/2 135/191/2 78/110/2 117/165/2
f 59/83/3 40/56/3 2/2/3 21/29/3
f 3/3/4 39/55/4 96/136/4 116/164/4
f 79/111/5 134/190/5 60/84/5 20/28/5
f 1/1/6 4/4/6 7/8/6 6/7/6
f 4/4/7 5/6/7 8/9/7 7/8/7
f 6/7/8 7/8/8 19/26/8 16/22/8
f 7/8/9 8/9/9 9/11/9 19/26/9
f 2/2/10 10/14/10 13/18/10 12/17/10
f 10/14/11 11/15/11 14/19/11 13/18/11
f 12/17/12 13/18/12 8/10/12 5/5/12
f 13/18/13 14/19/13 9/12/13 8/10/13
f 3/3/14 15/21/14 18/25/14 17/24/14
f 15/21/15 16/23/15 19/27/15 18/25/15
f 17/24/16 18/25/16 14/20/16 11/16/16
f 18/25/17 19/27/17 9/13/17 14/20/17
f 20/28/18 23/31/18 26/35/18 25/34/18
f 23/31/19 24/32/19 27/36/19 26/35/19
f 25/34/20 26/35/20 38/53/20 35/50/20
f 26/35/21 27/36/21 28/38/21 38/53/21
f 21/29/22 29/41/22 32/45/22 31/44/22
f 29/41/23 30/42/23 33/46/23 32/45/23
f 31/44/24 32/45/24 27/37/24 24/33/24
f 32/45/25 33/46/25 28/39/25 27/37/25
f 22/30/26 34/48/26 37/52/26 36/51/26
f 34/48/27 35/49/27 38/54/27 37/52/27
f 36/51/28 37/52/28 33/47/28 30/43/28
f 37/52/29 38/54/29 28/40/29 33/47/29
f 39/55/30 42/58/30 45/62/30 44/61/30
f 42/58/31 43/60/31 46/63/31 45/62/31
f 44/61/32 45/62/32 57/80/32 54/77/32
f 45/62/33 46/63/33 47/65/33 57/80/33
f 40/56/34 48/68/34 51/72/34 50/71/34
f 48/68/35 49/70/35 52/73/35 51/72/35
f 50/71/36 51/72/36 46/64/36 43/59/36
f 51/72/37 52/73/37 47/66/37 46/64/37
f 41/57/38 53/75/38 56/79/38 55/78/38
f 53/75/39 54/76/39 57/81/39 56/79/39
f 55/78/40 56/79/40 52/74/40 49/69/40
f 56/79/41 57/81/41 47/67/41 52/74/41
f 58/82/42 61/85/42 64/89/42 63/88/42
f 61/85/43 62/86/43 65/90/43 64/89/43
f 63/88/44 64/89/44 76/107/44 73/103/44
f 64/89/45 65/90/45 66/92/45 76/107/45
f 59/83/46 67/95/46 70/99/46 69/98/46
f 67/95/47 68/97/47 71/100/47 70/99/47
f 69/98/48 70/99/48 65/91/48 62/87/48
f 70/99/49 71/100/49 66/93/49 65/91/49
f 60/84/50 72/102/50 75/106/50 74/105/50
f 72/102/51 73/104/51 76/108/51 75/106/51
f 74/105/52 75/106/52 71/101/52 68/96/52
f 75/106/53 76/108/53 66/94/53 71/101/53
f 77/109/54 80/112/54 83/116/54 82/115/54
f 80/112/55 81/113/55 84/117/55 83/116/55
f 82/115/56 83/116/56 95/134/56 92/130/56
f 83/116/57 84/117/57 85/119/57 95/134/57
f 78/110/58 86/122/58 89/126/58 88/125/58
f 86/122/59 87/123/59 90/127/59 89/126/59
f 88/125/60 89/126/60 84/118/60 81/114/60
f 89/126/61 90/127/61 85/120/61 84/118/61
f 79/111/62 91/129/62 94/133/62 93/132/62
f 91/129/63 92/131/63 95/135/63 94/133/63
f 93/132/64 94/133/64 90/128/64 87/124/64
f 94/133/65 95/135/65 85/121/65 90/128/65
f 96/136/66 99/139/66 102/143/66 101/142/66
f 99/139/67 100/141/67 103/144/67 102/143/67
f 101/142/68 102/143/68 114/161/68 111/157/68
f 102/143/69 103/144/69 104/146/69 114/161/69
f 97/137/70 105/149/70 108/153/70 107/152/70
f 105/149/71 106/151/71 109/154/71 108/153/71
f 107/152/72 108/153/72 103/145/72 100/140/72
f 108/153/73 109/154/73 104/147/73 103/145/73
f 98/138/74 110/156/74 113/160/74 112/159/74
f 110/156/75 111/158/75 114/162/75 113/160/75
f 112/159/76 113/160/76 109/155/76 106/150/76
f 113/160/77 114/162/77 104/148/77 109/155/77
f 115/163/78 118/166/78 121/170/78 120/169/78
f 118/166/79 119/167/79 122/171/79 121/170/79
f 120/169/80 121/170/80 133/188/80 130/184/80
f 121/170/81 122/171/81 123/173/81 133/188/81
f 116/164/82 124/176/82 127/180/82 126/179/82
f 124/176/83 125/177/83 128/181/83 127/180/83
f 126/179/84 127/180/84 122/172/84 119/168/84
f 127/180/85 128/181/85 123/174/85 122/172/85
f 117/165/86 129/183/86 132/187/86 131/186/86
f 129/183/87 130/185/87 133/189/87 132/187/87
f 131/186/88 132/187/88 128/182/88 125/178/88
f 132/187/89 133/189/89 123/175/89 128/182/89
f 134/190/90 137/193/90 140/197/90 139/196/90
f 137/193/91 138/195/91 141/198/91 140/197/91
f 139/196/92 140/197/92 152/215/92 149/212/92
f 140/197/93 141/198/93 142/200/93 152/215/93
f 135/191/94 143/203/94 146/207/94 145/206/94
f 143/203/95 144/204/95 147/208/95 146/207/95
f 145/206/96 146/207/96 141/199/96 138/194/96
f 146/207/97 147/208/97 142/201/97 141/199/97
f 136/192/98 148/210/98 151/214/98 150/213/98
f 148/210/99 149/211/99 152/216/99 151/214/99
f 150/213/100 151/214/100 147/209/100 144/205/100
f 151/214/101 152/216/101 142/202/101 147/209/101
f 115/163/102 1/1/102 6/7/102 118/166/102
f 118/166/103 6/7/103 16/22/103 119/167/103
f 119/168/104 16/23/104 15/21/104 126/179/104
f 126/179/105 15/21/105 3/3/105 116/164/105
f 136/192/106 58/82/106 63/88/106 148/210/106
f 148/210/107 63/88/107 73/103/107 149/211/107
f 149/212/108 73/104/108 72/102/108 139/196/108
f 139/196/109 72/102/109 60/84/109 134/190/109
f 20/28/110 60/84/110 74/105/110 23/31/110
f 23/31/111 74/105/111 68/96/111 24/32/111
f 24/33/112 68/97/112 67/95/112 31/44/112
f 31/44/113 67/95/113 59/83/113 21/29/113
f 2/2/114 40/56/114 50/71/114 10/14/114
f 10/14/115 50/71/115 43/59/115 11/15/115
f 11/16/116 43/60/116 42/58/116 17/24/116
f 17/24/117 42/58/117 39/55/117 3/3/117
f 58/82/118 41/57/118 55/78/118 61/85/118
f 61/85/119 55/78/119 49/69/119 62/86/119
f 62/87/120 49/70/120 48/68/120 69/98/120
f 69/98/121 48/68/121 40/56/121 59/83/121
f 21/29/122 2/2/122 12/17/122 29/41/122
f 29/41/123 12/17/123 5/5/123 30/42/123
f 30/43/124 5/6/124 4/4/124 36/51/124
f 36/51/125 4/4/125 1/1/125 22/30/125
f 22/30/126 77/109/126 82/115/126 34/48/126
f 34/48/127 82/115/127 92/130/127 35/49/127
f 35/50/128 92/131/128 91/129/128 25/34/128
f 25/34/129 91/129/129 79/111/129 20/28/129
f 41/57/130 97/137/130 107/152/130 53/75/130
f 53/75/131 107/152/131 100/140/131 54/76/131
f 54/77/132 100/141/132 99/139/132 44/61/132
f 44/61/133 99/139/133 96/136/133 39/55/133
f 135/191/134 98/138/134 112/159/134 143/203/134
f 143/203/135 112/159/135 106/150/135 144/204/135
f 144/205/136 106/151/136 105/149/136 150/213/136
f 150/213/137 105/149/137 97/137/137 136/192/137
f 78/110/138 135/191/138 145/206/138 86/122/138
f 86/122/139 145/206/139 138/194/139 87/123/139
f 87/124/140 138/195/140 137/193/140 93/132/140
f 93/132/141 137/193/141 134/190/141 79/111/141
f 116/164/142 96/136/142 101/142/142 124/176/142
f 124/176/143 101/142/143 111/157/143 125/177/143
f 125/178/144 111/158/144 110/156/144 131/186/144
f 131/186/145 110/156/145 98/138/145 117/165/145
f 77/109/146 115/163/146 120/169/146 80/112/146
f 80/112/147 120/169/147 130/184/147 81/113/147
f 81/114/148 130/185/148 129/183/148 88/125/148
f 88/125/149 129/183/149 117/165/149 78/110/149
f 1/1/150 115/163/150 77/109/150 22/30/150
