# Blender 3.1.0
# www.blender.org
o overstek
v 0.000000 0.000000 -0.000000
v 0.000000 0.000000 -0.300000
v 0.000000 0.300000 -0.000000
v 0.000000 0.300000 -0.300000
v 1.000000 0.000000 -0.000000
v 1.000000 0.000000 -0.300000
v 1.000000 0.300000 -0.000000
v 1.000000 0.300000 -0.300000
v 0.020000 0.000000 -0.000000
v 0.020000 0.000000 -0.280000
v 0.020000 0.300000 -0.000000
v 0.020000 0.300000 -0.280000
v 0.980000 0.000000 -0.000000
v 0.980000 0.000000 -0.280000
v 0.980000 0.300000 -0.000000
v 0.980000 0.300000 -0.280000
v 0.020000 0.010000 -0.280000
v 0.980000 0.010000 -0.280000
v 0.020000 0.010000 -0.000000
v 0.980000 0.010000 -0.000000
vn -1.0000 -0.0000 -0.0000
vn 1.0000 -0.0000 -0.0000
vn -0.0000 -0.0000 -1.0000
vn -0.0000 -0.0000 1.0000
vn -0.0000 -1.0000 -0.0000
vn -0.0000 1.0000 -0.0000
vt 0.351388 0.820563
vt 1.525343 0.820563
vt 1.639285 -0.423599
vt 0.489500 0.820563
vt 1.525343 0.820563
vt 1.777398 -0.423599
vt 3.015805 0.824016
vt 0.351388 0.682451
vt 1.525343 0.682451
vt 1.639285 -0.423599
vt 0.489500 0.682451
vt 1.525343 0.682451
vt 1.777398 -0.423599
vt 0.351388 0.820563
vt -0.960679 0.820563
vt 1.639286 2.062423
vt 0.489500 0.820563
vt -0.960679 0.820563
vt 1.777398 2.062423
vt 0.529783 0.824016
vt 0.351388 0.682451
vt 1.639286 2.062423
vt -0.960679 0.682451
vt 0.489500 0.682451
vt -0.960679 0.682451
vt 1.777398 2.062423
vt 0.351388 0.820563
vt 1.516135 0.820563
vt 1.639285 -0.414391
vt 0.480293 0.820563
vt 1.516135 0.820563
vt 1.768190 -0.414391
vt 3.006598 0.814808
vt 0.351388 0.682451
vt 1.516135 0.682451
vt 1.639285 -0.414391
vt 0.480293 0.682451
vt 1.516135 0.682451
vt 1.768190 -0.414391
vt 0.351388 0.820563
vt -0.951472 0.820563
vt 1.639286 2.053216
vt 0.480293 0.820563
vt -0.951472 0.820563
vt 1.768190 2.053216
vt 0.538990 0.814809
vt 0.351388 0.682451
vt 1.639286 2.053216
vt -0.951472 0.682451
vt 0.480293 0.682451
vt -0.951472 0.682451
vt 1.768191 2.053216
vt 2.324841 -0.034333
vt 0.034009 -0.034333
vt 2.324841 -0.142101
vt 0.034009 -0.142101
s 0
f 1/1/1 3/8/1 4/11/1 2/4/1
f 7/21/2 5/14/2 6/17/2 8/24/2
f 8/25/3 6/18/3 2/5/3 4/12/3
f 9/27/2 10/30/2 12/37/2 11/34/2
f 15/47/1 16/50/1 14/43/1 13/40/1
f 16/51/4 12/38/4 10/31/4 14/44/4
f 1/2/4 9/28/4 11/35/4 3/9/4
f 2/6/5 10/32/5 9/29/5 1/3/5
f 3/10/6 11/36/6 12/39/6 4/13/6
f 4/13/6 12/39/6 16/52/6 8/26/6
f 8/26/6 16/52/6 15/48/6 7/22/6
f 7/23/4 15/49/4 13/41/4 5/15/4
f 5/16/5 13/42/5 14/45/5 6/19/5
f 6/20/5 14/46/5 10/33/5 2/7/5
f 17/53/5 18/54/5 20/56/5 19/55/5
