# Blender 3.1.0
# www.blender.org
o door_double_glass
v -0.820000 0.260000 0.026667
v -0.820000 0.260000 0.013334
v -0.820000 2.231000 0.026666
v -0.820000 2.231000 0.013333
v -0.110000 0.260000 0.026667
v -0.110000 0.260000 0.013334
v -0.110000 2.231000 0.026666
v -0.110000 2.231000 0.013333
v 0.820000 0.260000 0.026667
v 0.820000 0.260000 0.013334
v 0.820000 2.231000 0.026666
v 0.820000 2.231000 0.013333
v 0.110000 0.260000 0.026667
v 0.110000 0.260000 0.013334
v 0.110000 2.231000 0.026666
v 0.110000 2.231000 0.013333
vn -1.0000 -0.0000 -0.0000
vn -0.0000 1.0000 -0.0000
vn 1.0000 -0.0000 -0.0000
vn -0.0000 -1.0000 -0.0000
vn -0.0000 -0.0000 1.0000
vn -0.0000 -0.0000 -1.0000
vt 0.499998 0.002500
vt 0.499998 1.000000
vt 0.125000 0.747500
vt 0.749998 0.002500
vt 0.749998 1.000000
vt 0.875000 0.747500
vt 0.499998 0.248875
vt 0.499998 0.250000
vt 0.125000 0.501125
vt 0.749998 0.248875
vt 0.749997 0.250000
vt 0.875000 0.501125
vt 0.499998 0.747500
vt 0.499998 0.750000
vt 0.375000 0.747500
vt 0.749998 0.747500
vt 0.749998 0.750000
vt 0.625000 0.747500
vt 0.499998 0.500000
vt 0.499998 0.501125
vt 0.375000 0.501125
vt 0.749998 0.500000
vt 0.749998 0.501125
vt 0.625000 0.501125
vt 0.499998 0.002500
vt 0.499998 1.000000
vt 0.125000 0.747500
vt 0.749998 0.002500
vt 0.749998 1.000000
vt 0.875000 0.747500
vt 0.499998 0.248875
vt 0.499998 0.250000
vt 0.125000 0.501125
vt 0.749998 0.248875
vt 0.749997 0.250000
vt 0.875000 0.501125
vt 0.499998 0.747500
vt 0.499998 0.750000
vt 0.375000 0.747500
vt 0.749998 0.747500
vt 0.749998 0.750000
vt 0.625000 0.747500
vt 0.499998 0.500000
vt 0.499998 0.501125
vt 0.375000 0.501125
vt 0.749998 0.500000
vt 0.749998 0.501125
vt 0.625000 0.501125
s 0
f 1/1/1 3/7/1 4/10/1 2/4/1
f 3/8/2 7/19/2 8/22/2 4/11/2
f 7/20/3 5/13/3 6/16/3 8/23/3
f 5/14/4 1/2/4 2/5/4 6/17/4
f 3/9/5 1/3/5 5/15/5 7/21/5
f 8/24/6 6/18/6 2/6/6 4/12/6
f 9/25/3 10/28/3 12/34/3 11/31/3
f 11/32/2 12/35/2 16/46/2 15/43/2
f 15/44/1 16/47/1 14/40/1 13/37/1
f 13/38/4 14/41/4 10/29/4 9/26/4
f 11/33/5 15/45/5 13/39/5 9/27/5
f 16/48/6 12/36/6 10/30/6 14/42/6
