# Blender 3.1.0
# www.blender.org
o SM_Door1_Wood_Impost_Black_01
v 0.070000 0.012308 0.110000
v 0.070000 -0.000000 0.075000
v 0.070000 -0.000000 0.039295
v 0.070000 0.012308 -0.000000
v -0.000000 0.012308 0.110000
v -0.000000 -0.000000 0.075000
v -0.000000 -0.000000 0.039295
v -0.000000 0.012308 0.000000
v 0.070000 -0.000000 0.002000
v 0.070000 0.002000 -0.000000
v 0.070000 0.000152 0.001235
v 0.070000 0.000586 0.000586
v 0.070000 0.001235 0.000152
v 0.070000 0.030000 0.108000
v 0.070000 0.028000 0.110000
v 0.070000 0.029848 0.108765
v 0.070000 0.029414 0.109414
v 0.070000 0.028765 0.109848
v 0.070000 0.002000 0.110000
v 0.070000 -0.000000 0.108000
v 0.070000 0.001235 0.109848
v 0.070000 0.000586 0.109414
v 0.070000 0.000152 0.108765
v 0.070000 0.028000 -0.000000
v 0.070000 0.030000 0.002000
v 0.070000 0.028766 0.000152
v 0.070000 0.029414 0.000586
v 0.070000 0.029848 0.001235
v 0.070000 0.030000 0.038000
v 0.070000 0.028001 0.039960
v 0.070000 0.029848 0.038762
v 0.070000 0.029415 0.039402
v 0.070000 0.028766 0.039823
v 0.070000 0.014307 0.039687
v 0.070000 0.012308 0.041647
v 0.070000 0.013542 0.039824
v 0.070000 0.012893 0.040244
v 0.070000 0.012460 0.040885
v 0.070000 0.012308 0.073000
v 0.070000 0.014308 0.075000
v 0.070000 0.012460 0.073765
v 0.070000 0.012893 0.074414
v 0.070000 0.013542 0.074848
v 0.070000 0.028000 0.075000
v 0.070000 0.030000 0.077000
v 0.070000 0.028765 0.075152
v 0.070000 0.029414 0.075586
v 0.070000 0.029848 0.076235
v -0.000000 0.028000 0.110000
v -0.000000 0.030000 0.108000
v -0.000000 0.028765 0.109848
v -0.000000 0.029414 0.109414
v -0.000000 0.029848 0.108765
v -0.000000 -0.000000 0.108000
v -0.000000 0.002000 0.110000
v -0.000000 0.000152 0.108765
v -0.000000 0.000586 0.109414
v -0.000000 0.001235 0.109848
v -0.000000 0.028001 0.039962
v -0.000000 0.030000 0.038000
v -0.000000 0.028766 0.039824
v -0.000000 0.029415 0.039403
v -0.000000 0.029848 0.038762
v 0.000000 0.012308 0.041661
v -0.000000 0.014307 0.039699
v 0.000000 0.012460 0.040899
v 0.000000 0.012893 0.040258
v 0.000000 0.013542 0.039837
v -0.000000 0.014308 0.075000
v -0.000000 0.012308 0.073000
v -0.000000 0.013542 0.074848
v -0.000000 0.012893 0.074414
v -0.000000 0.012460 0.073765
v -0.000000 0.030000 0.077000
v -0.000000 0.028000 0.075000
v -0.000000 0.029848 0.076235
v -0.000000 0.029414 0.075586
v -0.000000 0.028765 0.075152
v -0.000000 0.002000 0.000000
v -0.000000 -0.000000 0.002000
v -0.000000 0.001235 0.000152
v -0.000000 0.000586 0.000586
v -0.000000 0.000152 0.001235
v -0.000000 0.030000 0.002000
v -0.000000 0.028000 0.000000
v -0.000000 0.029848 0.001235
v -0.000000 0.029414 0.000586
v -0.000000 0.028766 0.000152
vn -0.0000 0.9952 -0.0980
vn -0.0000 0.9952 0.0980
vn -0.0000 -0.9952 0.0980
vn -0.0000 -1.0000 -0.0000
vn -0.0000 -0.0000 -1.0000
vn -0.0000 0.0980 -0.9952
vn -0.0000 -0.0000 1.0000
vn -0.0000 -0.0980 0.9952
vn 0.0001 0.0789 0.9969
vn -0.0000 0.9952 0.0984
vn -0.0000 0.9951 0.0984
vn -0.0000 0.0980 0.9952
vn -0.0000 -0.0980 -0.9952
vn -0.0000 -0.3827 -0.9239
vn -0.0000 -0.7071 -0.7071
vn -0.0000 -0.9239 -0.3827
vn -0.0000 -0.9952 -0.0980
vn -0.0000 0.9239 -0.3827
vn -0.0000 0.7071 -0.7071
vn -0.0000 0.3827 -0.9239
vn -0.0000 0.9239 0.3827
vn -0.0000 0.7071 0.7071
vn -0.0000 0.3827 0.9239
vn -0.0000 -0.3827 0.9239
vn -0.0000 -0.7071 0.7071
vn -0.0000 -0.9239 0.3827
vn -0.0000 0.9226 0.3858
vn -0.0000 0.7002 0.7140
vn -0.0000 0.3677 0.9300
vn 0.0002 0.3677 0.9300
vn 0.0001 0.7002 0.7140
vn 0.0001 0.7001 0.7140
vn 0.0001 0.9226 0.3858
vt 0.079606 1.259360
vt -0.378662 1.259360
vt -0.431055 1.259360
vt 0.153540 1.259360
vt 0.079606 1.156645
vt -0.378662 1.156644
vt -0.431055 1.156644
vt 0.153540 1.156645
vt -0.485780 1.259360
vt 0.168665 1.259360
vt -0.486903 1.259360
vt 0.171600 1.259360
vt -0.488715 1.259360
vt 0.169788 1.259360
vt -0.808601 1.259360
vt 0.102632 1.259360
vt -0.809724 1.259360
vt -0.811535 1.259360
vt 0.105567 1.259360
vt 0.103755 1.259360
vt 0.064481 1.259360
vt -0.330240 1.259360
vt 0.063358 1.259361
vt 0.061546 1.259360
vt -0.327305 1.259360
vt -0.329117 1.259360
vt 0.130513 1.259360
vt -0.653060 1.259360
vt 0.129390 1.259360
vt -0.650125 1.259360
vt 0.127578 1.259360
vt -0.651937 1.259360
vt -0.705885 1.259360
vt 0.973365 -0.208003
vt -0.707004 1.259360
vt -0.708820 1.259360
vt 0.976299 -0.208003
vt 0.974484 -0.208003
vt 0.953272 -0.208003
vt 0.220546 -0.208004
vt 0.952153 -0.208003
vt 0.950338 -0.208003
vt 0.223481 -0.208004
vt 0.221664 -0.208004
vt 0.174535 -0.208004
vt 0.979234 -0.259360
vt 0.173412 -0.208004
vt 0.171600 -0.208004
vt 0.976300 -0.259360
vt 0.978111 -0.259360
vt 0.999326 -0.259360
vt -0.763112 1.259360
vt 1.000449 -0.259360
vt 1.002261 -0.259361
vt -0.760178 1.259360
vt -0.761989 1.259360
vt 0.102632 1.156645
vt -0.808601 1.156645
vt 0.103755 1.156645
vt -0.811535 1.156645
vt 0.105567 1.156645
vt -0.809724 1.156645
vt -0.330240 1.156644
vt 0.064481 1.156645
vt -0.329117 1.156644
vt 0.061546 1.156645
vt -0.327305 1.156644
vt 0.063358 1.156645
vt 0.973365 -0.310719
vt -0.705885 1.156645
vt 0.974483 -0.310719
vt -0.708820 1.156645
vt 0.976299 -0.310719
vt -0.707004 1.156645
vt 0.220525 -0.310719
vt 0.953272 -0.310719
vt 0.221644 -0.310719
vt 0.950338 -0.310719
vt 0.223460 -0.310719
vt 0.952153 -0.310719
vt 0.979234 -0.156644
vt 0.174535 -0.310719
vt 0.978111 -0.156644
vt 0.171600 -0.310719
vt 0.976300 -0.156644
vt 0.173412 -0.310719
vt -0.763112 1.156644
vt 0.999326 -0.156645
vt -0.761989 1.156644
vt 1.002261 -0.156645
vt -0.760178 1.156644
vt 1.000449 -0.156645
vt 0.168665 1.156645
vt -0.485780 1.156645
vt 0.169788 1.156645
vt 0.171600 1.156645
vt -0.488715 1.156645
vt -0.486903 1.156645
vt -0.653060 1.156644
vt 0.130513 1.156645
vt -0.651937 1.156644
vt -0.650125 1.156644
vt 0.127578 1.156645
vt 0.129390 1.156645
s 1
f 74/87/1 50/58/2 14/15/2 45/52/1
f 54/63/3 6/6/4 2/2/4 20/22/3
f 8/8/5 85/100/6 24/27/6 4/4/5
f 5/5/7 55/64/8 19/21/8 1/1/7
f 59/69/9 65/76/9 34/39/9 30/34/9
f 64/75/10 70/82/1 39/45/1 35/40/11
f 69/81/6 75/88/6 44/51/6 40/46/6
f 49/57/12 5/5/7 1/1/7 15/16/12
f 79/93/13 8/8/5 4/4/5 10/10/13
f 6/6/4 7/7/4 3/3/4 2/2/4
f 84/99/1 60/70/11 29/33/11 25/28/1
f 79/93/13 10/10/13 13/14/14 81/95/14
f 81/95/14 13/14/14 12/12/15 82/96/15
f 82/97/15 12/13/15 11/11/16 83/98/16
f 83/98/16 11/11/16 9/9/17 80/94/17
f 84/99/1 25/28/1 28/32/18 86/101/18
f 86/101/18 28/32/18 27/30/19 87/102/19
f 87/103/19 27/31/19 26/29/20 88/104/20
f 88/104/20 26/29/20 24/27/6 85/100/6
f 14/15/2 50/58/2 53/62/21 16/17/21
f 16/17/21 53/62/21 52/60/22 17/18/22
f 17/19/22 52/61/22 51/59/23 18/20/23
f 18/20/23 51/59/23 49/57/12 15/16/12
f 19/21/8 55/64/8 58/68/24 21/23/24
f 21/23/24 58/68/24 57/66/25 22/24/25
f 22/25/25 57/67/25 56/65/26 23/26/26
f 23/26/26 56/65/26 54/63/3 20/22/3
f 29/33/11 60/70/11 63/74/27 31/35/27
f 31/35/27 63/74/27 62/72/28 32/36/28
f 32/37/28 62/73/28 61/71/29 33/38/29
f 33/38/29 61/71/29 59/69/9 30/34/9
f 34/39/9 65/76/9 68/80/30 36/41/30
f 36/41/30 68/80/30 67/78/31 37/42/32
f 37/43/32 67/79/31 66/77/33 38/44/33
f 38/44/33 66/77/33 64/75/10 35/40/11
f 39/45/1 70/82/1 73/86/18 41/47/18
f 41/47/18 73/86/18 72/84/19 42/48/19
f 42/49/19 72/85/19 71/83/20 43/50/20
f 43/50/20 71/83/20 69/81/6 40/46/6
f 44/51/6 75/88/6 78/92/20 46/53/20
f 46/53/20 78/92/20 77/90/19 47/54/19
f 47/55/19 77/91/19 76/89/18 48/56/18
f 48/56/18 76/89/18 74/87/1 45/52/1
f 7/7/4 80/94/17 9/9/17 3/3/4
