# Blender 3.1.0
# www.blender.org
o SM_Door1_Wood_Rails_Black_01
v 1.000000 0.012308 0.109999
v 1.000000 -0.000000 0.075000
v 1.000000 -0.000000 0.039295
v 1.000000 0.012308 -0.000001
v 0.000000 0.012308 0.110000
v 0.000000 -0.000000 0.075000
v 0.000000 -0.000000 0.039295
v 0.000000 0.012308 0.000000
v 1.000000 0.030000 0.107999
v 1.000000 0.028000 0.109999
v 1.000000 0.029848 0.108765
v 1.000000 0.029414 0.109414
v 1.000000 0.028765 0.109847
v 1.000000 0.002000 0.109999
v 1.000000 -0.000000 0.107999
v 1.000000 0.001235 0.109847
v 1.000000 0.000586 0.109414
v 1.000000 0.000152 0.108765
v 1.000000 0.030000 0.037999
v 1.000000 0.028001 0.039961
v 1.000000 0.029848 0.038762
v 1.000000 0.029415 0.039402
v 1.000000 0.028766 0.039824
v 1.000000 0.014307 0.039699
v 1.000000 0.012308 0.041661
v 1.000000 0.013542 0.039836
v 1.000000 0.012893 0.040258
v 1.000000 0.012460 0.040898
v 1.000000 0.012308 0.073000
v 1.000000 0.014308 0.075000
v 1.000000 0.012460 0.073765
v 1.000000 0.012893 0.074414
v 1.000000 0.013542 0.074847
v 1.000000 0.028000 0.075000
v 1.000000 0.030000 0.077000
v 1.000000 0.028765 0.075152
v 1.000000 0.029414 0.075585
v 1.000000 0.029848 0.076234
v 1.000000 -0.000000 0.001999
v 1.000000 0.002000 -0.000001
v 1.000000 0.000152 0.001234
v 1.000000 0.000586 0.000585
v 1.000000 0.001235 0.000152
v 1.000000 0.028000 -0.000001
v 1.000000 0.030000 0.001999
v 1.000000 0.028766 0.000152
v 1.000000 0.029414 0.000585
v 1.000000 0.029848 0.001234
v 0.000000 0.028000 0.110000
v 0.000000 0.030000 0.108000
v 0.000000 0.028765 0.109848
v 0.000000 0.029414 0.109414
v 0.000000 0.029848 0.108765
v 0.000000 -0.000000 0.108000
v 0.000000 0.002000 0.110000
v 0.000000 0.000152 0.108765
v 0.000000 0.000586 0.109414
v 0.000000 0.001235 0.109848
v 0.000000 0.028000 0.040000
v 0.000000 0.030000 0.038000
v 0.000000 0.028766 0.039848
v 0.000000 0.029414 0.039414
v 0.000000 0.029848 0.038765
v 0.000000 0.012308 0.041997
v 0.000000 0.014308 0.039997
v 0.000000 0.012460 0.041232
v 0.000000 0.012893 0.040583
v 0.000000 0.013542 0.040149
v 0.000000 0.014308 0.075000
v 0.000000 0.012308 0.073000
v 0.000000 0.013542 0.074848
v 0.000000 0.012893 0.074414
v 0.000000 0.012460 0.073765
v 0.000000 0.030000 0.077000
v 0.000000 0.028000 0.075000
v 0.000000 0.029848 0.076235
v 0.000000 0.029414 0.075586
v 0.000000 0.028765 0.075152
v 0.000000 0.002000 0.000000
v 0.000000 -0.000000 0.002000
v 0.000000 0.001235 0.000152
v 0.000000 0.000586 0.000586
v 0.000000 0.000152 0.001235
v 0.000000 0.030000 0.002000
v 0.000000 0.028000 0.000000
v 0.000000 0.029848 0.001235
v 0.000000 0.029414 0.000586
v 0.000000 0.028766 0.000152
vn -0.0000 -1.0000 -0.0000
vn -0.0000 -0.0000 -1.0000
vn -0.0000 0.0980 -0.9952
vn -0.0000 -0.9952 -0.0980
vn -0.0000 -0.0980 -0.9952
vn -0.0000 0.9952 -0.0980
vn -0.0000 0.9952 0.0982
vn -0.0000 0.0980 0.9952
vn -0.0000 -0.0000 1.0000
vn -0.0000 -0.0980 0.9952
vn 0.0001 0.0886 0.9961
vn 0.0002 0.0886 0.9961
vn -0.0000 -0.9952 0.0980
vn -0.0000 -0.3827 -0.9239
vn -0.0000 -0.7071 -0.7071
vn -0.0000 -0.9239 -0.3827
vn -0.0000 0.9239 -0.3827
vn -0.0000 0.7071 -0.7071
vn -0.0000 0.3827 -0.9239
vn -0.0000 0.9952 0.0980
vn -0.0000 0.9239 0.3827
vn -0.0000 0.7071 0.7071
vn -0.0000 0.3827 0.9239
vn -0.0000 -0.3827 0.9239
vn -0.0000 -0.7071 0.7071
vn -0.0000 -0.9239 0.3827
vn -0.0000 0.9232 0.3842
vn -0.0000 0.7037 0.7105
vn -0.0000 0.3753 0.9269
vn 0.0003 0.3753 0.9269
vn 0.0002 0.7037 0.7105
vn 0.0001 0.9233 0.3842
vn 0.0001 0.9232 0.3842
vt 0.079606 0.169844
vt -0.378662 0.169844
vt -0.431055 0.169844
vt 0.153540 0.169844
vt 0.079606 -1.297519
vt -0.378662 -1.297519
vt -0.431055 -1.297519
vt 0.153540 -1.297519
vt -0.808601 0.169844
vt 0.102632 0.169844
vt -0.809724 0.169844
vt -0.811535 0.169844
vt 0.105567 0.169844
vt 0.103756 0.169844
vt 0.064481 0.169844
vt -0.330240 0.169844
vt 0.063358 0.169844
vt 0.061546 0.169844
vt -0.327305 0.169844
vt -0.329117 0.169844
vt -0.705885 0.169844
vt 0.973365 -1.297519
vt -0.707004 0.169844
vt -0.708820 0.169844
vt 0.976299 -1.297519
vt 0.974486 -1.297519
vt 0.953272 -1.297519
vt 0.220527 -1.297519
vt 0.952151 -1.297519
vt 0.950338 -1.297520
vt 0.223462 -1.297519
vt 0.221646 -1.297519
vt 0.174536 -1.297520
vt 0.979234 0.830156
vt 0.173412 -1.297520
vt 0.171601 -1.297520
vt 0.976300 0.830156
vt 0.978111 0.830156
vt 0.999326 0.830156
vt -0.763112 0.169844
vt 1.000449 0.830156
vt 1.002261 0.830156
vt -0.760178 0.169844
vt -0.761989 0.169844
vt -0.485780 0.169844
vt 0.168665 0.169844
vt -0.486903 0.169844
vt 0.171600 0.169844
vt -0.488715 0.169844
vt 0.169788 0.169844
vt 0.130513 0.169844
vt -0.653060 0.169844
vt 0.129390 0.169844
vt -0.650125 0.169844
vt 0.127578 0.169844
vt -0.651937 0.169844
vt 0.102633 -1.297519
vt -0.808601 -1.297519
vt 0.103756 -1.297519
vt -0.811535 -1.297519
vt 0.105567 -1.297519
vt -0.809724 -1.297519
vt -0.330240 -1.297519
vt 0.064481 -1.297519
vt -0.329117 -1.297520
vt 0.061546 -1.297519
vt -0.327305 -1.297520
vt 0.063358 -1.297519
vt 0.973365 -2.764883
vt -0.705885 -1.297519
vt 0.974486 -2.764883
vt -0.708820 -1.297519
vt 0.976299 -2.764883
vt -0.707008 -1.297519
vt 0.220036 -2.764883
vt 0.953273 -2.764883
vt 0.221160 -2.764883
vt 0.950338 -2.764883
vt 0.222972 -2.764883
vt 0.952152 -2.764883
vt 0.979234 2.297519
vt 0.174536 -2.764883
vt 0.978111 2.297519
vt 0.171601 -2.764883
vt 0.976300 2.297519
vt 0.173413 -2.764883
vt -0.763112 -1.297519
vt 0.999326 2.297519
vt -0.761989 -1.297520
vt 1.002261 2.297519
vt -0.760178 -1.297520
vt 1.000449 2.297519
vt 0.168665 -1.297519
vt -0.485780 -1.297519
vt 0.169788 -1.297519
vt 0.171600 -1.297519
vt -0.488715 -1.297519
vt -0.486903 -1.297519
vt -0.653060 -1.297520
vt 0.130513 -1.297519
vt -0.651937 -1.297520
vt -0.650125 -1.297520
vt 0.127579 -1.297519
vt 0.129390 -1.297519
s 1
f 6/6/1 7/7/1 3/3/1 2/2/1
f 8/8/2 85/100/3 44/51/3 4/4/2
f 7/7/1 80/94/4 39/45/4 3/3/1
f 79/93/5 8/8/2 4/4/2 40/46/5
f 69/81/3 75/88/3 34/39/3 30/34/3
f 84/99/6 60/70/7 19/21/7 45/52/6
f 64/75/7 70/82/6 29/33/6 25/28/7
f 49/57/8 5/5/9 1/1/9 10/10/8
f 5/5/9 55/64/10 14/15/10 1/1/9
f 59/69/11 65/76/12 24/27/12 20/22/11
f 54/63/13 6/6/1 2/2/1 15/16/13
f 79/93/5 40/46/5 43/50/14 81/95/14
f 81/95/14 43/50/14 42/48/15 82/96/15
f 82/97/15 42/49/15 41/47/16 83/98/16
f 83/98/16 41/47/16 39/45/4 80/94/4
f 84/99/6 45/52/6 48/56/17 86/101/17
f 86/101/17 48/56/17 47/54/18 87/102/18
f 87/103/18 47/55/18 46/53/19 88/104/19
f 88/104/19 46/53/19 44/51/3 85/100/3
f 9/9/20 50/58/20 53/62/21 11/11/21
f 11/11/21 53/62/21 52/60/22 12/12/22
f 12/13/22 52/61/22 51/59/23 13/14/23
f 13/14/23 51/59/23 49/57/8 10/10/8
f 14/15/10 55/64/10 58/68/24 16/17/24
f 16/17/24 58/68/24 57/66/25 17/18/25
f 17/19/25 57/67/25 56/65/26 18/20/26
f 18/20/26 56/65/26 54/63/13 15/16/13
f 19/21/7 60/70/7 63/74/27 21/23/27
f 21/23/27 63/74/27 62/72/28 22/24/28
f 22/25/28 62/73/28 61/71/29 23/26/29
f 23/26/29 61/71/29 59/69/11 20/22/11
f 24/27/12 65/76/12 68/80/30 26/29/30
f 26/29/30 68/80/30 67/78/31 27/30/31
f 27/31/31 67/79/31 66/77/32 28/32/33
f 28/32/33 66/77/32 64/75/7 25/28/7
f 29/33/6 70/82/6 73/86/17 31/35/17
f 31/35/17 73/86/17 72/84/18 32/36/18
f 32/37/18 72/85/18 71/83/19 33/38/19
f 33/38/19 71/83/19 69/81/3 30/34/3
f 34/39/3 75/88/3 78/92/19 36/41/19
f 36/41/19 78/92/19 77/90/18 37/42/18
f 37/43/18 77/91/18 76/89/17 38/44/17
f 38/44/17 76/89/17 74/87/6 35/40/6
f 74/87/6 50/58/20 9/9/20 35/40/6
