# Blender 3.1.0
# www.blender.org
o SM_Door1_Plastic_DoorGlass_01
v 0.890000 2.220000 0.026667
v 0.890000 2.220000 0.013333
v 0.890000 0.140000 0.013333
v 0.180000 2.220000 0.013333
v 0.890000 0.140000 0.026666
v 0.180000 2.220000 0.026667
v 0.180000 0.140000 0.013333
v 0.180000 0.140000 0.026667
vn -0.0000 -1.0000 -0.0000
vn 1.0000 -0.0000 -0.0000
vn -0.0000 1.0000 -0.0000
vn -1.0000 -0.0000 -0.0000
vn -0.0000 -0.0000 -1.0000
vn -0.0000 -0.0000 1.0000
vt 1.263572 -1.185497
vt 1.283285 -1.185497
vt 1.283285 -1.185497
vt 1.283285 -1.185497
vt 1.263572 -1.185497
vt 1.263572 -1.185497
vt 1.283285 1.889796
vt 1.263572 1.889797
s 0
f 3/3/1 5/5/1 8/8/1 7/7/1
f 2/2/2 1/1/2 5/5/2 3/3/2
f 4/4/3 6/6/3 1/1/3 2/2/3
f 6/6/4 4/4/4 7/7/4 8/8/4
f 2/2/5 3/3/5 7/7/5 4/4/5
f 1/1/6 6/6/6 8/8/6 5/5/6
