# Blender 3.1.0
# www.blender.org
o SM_Door2_Wood_WinBlock_01
v 1.000000 2.358692 0.042000
v 1.000000 2.358692 0.073000
v 0.000000 2.358692 0.073001
v 0.000000 2.358692 0.042000
v 1.000000 2.400000 0.108000
v 1.000000 2.400000 0.075001
v 0.000000 2.400000 0.075001
v 0.000000 2.400000 0.108000
v 1.000000 2.356692 0.075000
v 1.000000 2.343000 0.075000
v 0.000000 2.343000 0.075001
v 0.000000 2.356692 0.075001
v 1.000000 2.343000 0.000000
v 0.000000 2.343000 0.000000
v 0.000000 2.358692 0.000000
v 1.000000 2.358692 0.000000
v 1.000000 2.341000 0.077001
v 1.000000 2.341000 0.108000
v 0.000000 2.341000 0.108000
v 0.000000 2.341000 0.077001
v 1.000000 2.358692 0.110001
v 1.000000 2.398000 0.110000
v 0.000000 2.398000 0.110000
v 0.000000 2.358692 0.110000
v 1.000000 2.400000 0.040000
v 0.000000 2.400000 0.040000
v 1.000000 2.341000 0.038000
v 0.000000 2.341000 0.038000
v 0.000000 2.341000 0.002000
v 1.000000 2.341000 0.002000
v 1.000000 2.400000 0.002000
v 0.000000 2.400000 0.002000
v 1.000000 2.343000 0.110000
v 0.000000 2.343000 0.110000
v 0.000000 2.398000 0.000000
v 1.000000 2.398000 0.000000
v 1.000000 2.342235 0.075153
v 0.000000 2.342235 0.075153
v 1.000000 2.341586 0.075586
v 0.000000 2.341586 0.075586
v 1.000000 2.341152 0.076235
v 0.000000 2.341152 0.076235
v 1.000000 2.358540 0.073766
v 0.000000 2.358540 0.073766
v 1.000000 2.358106 0.074414
v 0.000000 2.358106 0.074415
v 1.000000 2.357457 0.074848
v 0.000000 2.357457 0.074848
v 0.000000 2.356692 0.040000
v 1.000000 2.356692 0.040000
v 1.000000 2.357457 0.040153
v 0.000000 2.357457 0.040153
v 1.000000 2.358106 0.040586
v 0.000000 2.358106 0.040586
v 1.000000 2.358540 0.041235
v 0.000000 2.358540 0.041235
v 1.000000 2.341152 0.038766
v 0.000000 2.341152 0.038766
v 1.000000 2.341586 0.039415
v 0.000000 2.341586 0.039415
v 1.000000 2.342235 0.039848
v 0.000000 2.342235 0.039848
v 1.000000 2.343000 0.040000
v 0.000000 2.343000 0.040000
v 1.000000 2.342235 0.000153
v 0.000000 2.342235 0.000153
v 1.000000 2.341586 0.000586
v 0.000000 2.341586 0.000586
v 1.000000 2.341152 0.001235
v 0.000000 2.341152 0.001235
v 1.000000 2.399847 0.001235
v 0.000000 2.399847 0.001235
v 1.000000 2.399414 0.000586
v 0.000000 2.399414 0.000586
v 1.000000 2.398765 0.000153
v 0.000000 2.398765 0.000153
v 1.000000 2.398765 0.109848
v 0.000000 2.398765 0.109848
v 1.000000 2.399414 0.109415
v 0.000000 2.399414 0.109415
v 1.000000 2.399847 0.108766
v 0.000000 2.399847 0.108766
v 0.000000 2.342235 0.109848
v 1.000000 2.342235 0.109848
v 0.000000 2.341586 0.109415
v 1.000000 2.341586 0.109415
v 0.000000 2.341152 0.108766
v 1.000000 2.341152 0.108766
vn -0.0000 -0.9952 0.0983
vn -0.0000 -0.9952 -0.0983
vn -0.0000 -0.9952 -0.0981
vn -0.0000 0.9951 0.0985
vn -0.0000 1.0000 -0.0000
vn -0.0000 -0.0982 -0.9952
vn -0.0000 -0.0979 -0.9952
vn -0.0000 -0.0980 -0.9952
vn -0.0000 -0.0000 -1.0000
vn -0.0000 -0.9952 0.0981
vn -0.0000 -0.0000 1.0000
vn -0.0000 0.0979 0.9952
vn -0.0000 -0.9952 -0.0978
vn -0.0000 0.9952 -0.0982
vn -0.0000 -0.0979 0.9952
vn -0.0000 0.0982 -0.9952
vn -0.0000 -0.3826 -0.9239
vn -0.0000 -0.7072 -0.7071
vn -0.0000 -0.9239 -0.3826
vn -0.0000 -0.9238 -0.3829
vn -0.0000 -0.7071 -0.7071
vn -0.0000 -0.3828 -0.9238
vn -0.0000 -0.0986 0.9951
vn -0.0000 -0.3824 0.9240
vn -0.0000 -0.7070 0.7072
vn -0.0000 -0.9238 0.3828
vn -0.0000 -0.9239 0.3826
vn -0.0000 -0.3826 0.9239
vn -0.0000 -0.3829 -0.9238
vn -0.0000 -0.7070 -0.7072
vn -0.0000 -0.9238 -0.3828
vn -0.0000 0.9238 -0.3829
vn -0.0000 0.7071 -0.7071
vn -0.0000 0.3828 -0.9238
vn -0.0000 0.3828 0.9238
vn -0.0000 0.7071 0.7071
vn -0.0000 0.9239 0.3828
vn -0.0000 -0.3823 0.9240
vt 0.226927 -2.893493
vt 0.272415 -2.893493
vt 0.272415 -0.890665
vt 0.226926 -0.890664
vt -0.647190 -1.382109
vt -0.598767 -1.382109
vt -0.598767 0.620720
vt -0.647190 0.620720
vt 1.018402 -2.893493
vt 1.038494 -2.893493
vt 1.038494 -0.890665
vt 1.018402 -0.890665
vt -0.051440 2.382107
vt -0.051440 0.379280
vt -0.028414 0.379280
vt -0.031931 0.379280
vt -0.028414 2.382108
vt -0.031931 2.382108
vt -0.214318 -1.382109
vt -0.168830 -1.382109
vt -0.168830 0.620720
vt -0.214318 0.620720
vt -0.134647 -1.382109
vt -0.131129 -1.382109
vt -0.061608 -1.382109
vt -0.061608 0.620720
vt -0.134647 0.620720
vt -0.131129 0.620720
vt -0.547409 -1.382109
vt -0.547409 0.620720
vt -0.271546 -1.382109
vt -0.271546 0.620720
vt -0.324371 0.620720
vt -0.324371 -1.382109
vt -0.491650 -1.382109
vt -0.491650 0.620720
vt -0.154155 -1.382109
vt -0.154155 0.620720
vt 0.041107 0.379280
vt 0.041107 2.382108
vt 1.039617 -2.893493
vt 1.039617 -0.890665
vt 1.041428 -2.893493
vt -0.217253 -1.382109
vt 1.041428 -0.890665
vt -0.217253 0.620720
vt -0.215441 -1.382109
vt -0.215441 0.620720
vt 0.273538 -2.893493
vt 0.273538 -0.890665
vt 0.275350 -2.893493
vt 1.015468 -2.893493
vt 0.275350 -0.890665
vt 1.015468 -0.890665
vt 1.017280 -2.893493
vt 1.017280 -0.890665
vt 1.044363 0.379279
vt 1.044363 2.382108
vt 1.043241 2.382108
vt 1.043241 0.379279
vt 1.041428 2.382108
vt 0.223992 -2.893493
vt 1.041428 0.379279
vt 0.223992 -0.890664
vt 0.225803 -2.893493
vt 0.225803 -0.890664
vt -0.270423 -1.382109
vt -0.270423 0.620720
vt -0.268611 -1.382109
vt 1.067389 2.382107
vt -0.268611 0.620720
vt 1.067389 0.379279
vt 1.065578 2.382107
vt 1.065578 0.379279
vt 1.064454 2.382107
vt 1.064454 0.379279
vt -0.052563 2.382107
vt -0.052563 0.379280
vt -0.054375 2.382107
vt -0.327305 -1.382109
vt -0.054375 0.379280
vt -0.327305 0.620720
vt -0.325494 -1.382109
vt -0.325494 0.620720
vt -0.490527 -1.382109
vt -0.490527 0.620720
vt -0.488715 -1.382109
vt 0.044824 2.382108
vt -0.488715 0.620720
vt 0.044824 0.379280
vt 0.042529 2.382108
vt 0.042529 0.379280
vt -0.060187 -1.382109
vt -0.060187 0.620720
vt -0.057892 -1.382109
vt -0.650125 -1.382109
vt -0.057892 0.620720
vt -0.650125 0.620720
vt -0.648313 -1.382109
vt -0.648313 0.620720
vt -0.155279 0.620720
vt -0.155279 -1.382109
vt -0.157090 0.620720
vt -0.165896 0.620720
vt -0.157090 -1.382109
vt -0.165896 -1.382109
vt -0.167707 0.620720
vt -0.167707 -1.382109
s 1
f 1/1/1 2/2/2 3/3/3 4/4/1
f 5/5/4 6/6/5 7/7/5 8/8/4
f 9/9/6 10/10/6 11/11/7 12/12/6
f 13/13/8 14/14/8 15/15/9 16/17/9
f 17/19/3 18/20/10 19/21/10 20/22/3
f 21/23/11 22/25/12 23/26/12 24/27/11
f 6/6/5 25/29/5 26/30/5 7/7/5
f 27/31/10 28/32/10 29/33/13 30/34/13
f 25/29/5 31/35/14 32/36/14 26/30/5
f 33/37/15 21/24/11 24/28/11 34/38/15
f 16/18/9 15/16/9 35/39/16 36/40/16
f 11/11/7 10/10/6 37/41/17 38/42/17
f 38/42/17 37/41/17 39/43/18 40/45/18
f 40/46/18 39/44/18 41/47/19 42/48/19
f 42/48/19 41/47/19 17/19/3 20/22/3
f 3/3/3 2/2/2 43/49/20 44/50/20
f 44/50/20 43/49/20 45/51/21 46/53/21
f 46/54/21 45/52/21 47/55/22 48/56/22
f 48/56/22 47/55/22 9/9/6 12/12/6
f 49/57/23 50/58/23 51/59/24 52/60/24
f 52/60/24 51/59/24 53/61/25 54/63/25
f 54/64/25 53/62/25 55/65/26 56/66/26
f 56/66/26 55/65/26 1/1/1 4/4/1
f 28/32/10 27/31/10 57/67/27 58/68/27
f 58/68/27 57/67/27 59/69/25 60/71/25
f 60/72/25 59/70/25 61/73/28 62/74/28
f 62/74/28 61/73/28 63/75/15 64/76/15
f 14/14/8 13/13/8 65/77/29 66/78/29
f 66/78/29 65/77/29 67/79/30 68/81/30
f 68/82/30 67/80/30 69/83/31 70/84/31
f 70/84/31 69/83/31 30/34/13 29/33/13
f 32/36/14 31/35/14 71/85/32 72/86/32
f 72/86/32 71/85/32 73/87/33 74/89/33
f 74/90/33 73/88/33 75/91/34 76/92/34
f 76/92/34 75/91/34 36/40/16 35/39/16
f 23/26/12 22/25/12 77/93/35 78/94/35
f 78/94/35 77/93/35 79/95/36 80/97/36
f 80/98/36 79/96/36 81/99/37 82/100/37
f 82/100/37 81/99/37 5/5/4 8/8/4
f 33/37/15 34/38/15 83/101/38 84/102/38
f 84/102/38 83/101/38 85/103/25 86/105/25
f 86/106/25 85/104/25 87/107/27 88/108/27
f 88/108/27 87/107/27 19/21/10 18/20/10
f 63/75/15 50/58/23 49/57/23 64/76/15
