# Vectary OBJ Export units=mm

v -0.011 0.012 0.075
v -0.011 2.359 0.075
v -0.011 2.359 0.040
v -0.011 0.012 0.040
v 0.989 2.359 0.075
v 0.989 2.359 0.040
v 0.989 0.012 0.075
v 0.989 0.012 0.040
vt 0.38295 0.00000
vt 0.38295 0.24904
vt 0.61192 0.24904
vt 0.61192 0.00000
vt 0.38295 0.10830
vt 0.38295 0.31314
vt 0.61192 0.31314
vt 0.61192 0.10830
vt 0.38295 0.50095
vt 0.38295 0.75000
vt 0.61192 0.75000
vt 0.61192 0.50095
vt 0.38295 0.93686
vt 0.38295 1.14170
vt 0.61192 1.14170
vt 0.61192 0.93686
vt -0.01670 0.50095
vt -0.01670 0.75000
vt 0.18814 0.75000
vt 0.18814 0.50095
vt 0.81186 0.50095
vt 0.81186 0.75000
vt 1.01670 0.75000
vt 1.01670 0.50095
vn -1.00000 0.00000 0.00000
vn -1.00000 0.00000 0.00000
vn -1.00000 0.00000 0.00000
vn -1.00000 0.00000 0.00000
vn 0.00000 1.00000 0.00000
vn 0.00000 1.00000 0.00000
vn 0.00000 1.00000 0.00000
vn 0.00000 1.00000 0.00000
vn 1.00000 0.00000 0.00000
vn 1.00000 0.00000 0.00000
vn 1.00000 0.00000 0.00000
vn 1.00000 0.00000 0.00000
vn 0.00000 -1.00000 -0.00000
vn 0.00000 -1.00000 -0.00000
vn 0.00000 -1.00000 -0.00000
vn 0.00000 -1.00000 -0.00000
vn 0.00000 -0.00000 1.00000
vn 0.00000 -0.00000 1.00000
vn 0.00000 -0.00000 1.00000
vn 0.00000 -0.00000 1.00000
vn 0.00000 0.00000 -1.00000
vn 0.00000 0.00000 -1.00000
vn 0.00000 0.00000 -1.00000
vn 0.00000 0.00000 -1.00000
f 2/2/2 3/3/3 4/4/4 1/1/1 
f 5/6/6 6/7/7 3/8/8 2/5/5 
f 7/10/10 8/11/11 6/12/12 5/9/9 
f 1/14/14 4/15/15 8/16/16 7/13/13 
f 1/18/18 7/19/19 5/20/20 2/17/17 
f 8/22/22 4/23/23 3/24/24 6/21/21 
