# Blender 3.1.0
# www.blender.org
o SM_DoorSliding_Glass_01.002_Dub
v -0.000000 0.155000 0.018334
v 1.000000 0.155000 0.018334
v 1.000000 2.220001 0.018333
v -0.000000 2.220001 0.018333
v 0.000000 2.220001 0.036667
v 1.000000 2.220001 0.036667
v 0.000000 0.155000 0.036667
v 1.000000 0.155000 0.036667
vn -0.0000 -1.0000 -0.0000
vn -1.0000 -0.0000 -0.0000
vn 1.0000 -0.0000 -0.0000
vn -0.0000 1.0000 -0.0000
vn -0.0000 -0.0000 1.0000
vn -0.0000 -0.0000 -1.0000
vt 0.000000 0.000000
vt 0.000000 0.000000
vt 0.000000 0.000000
vt 0.000000 0.000000
vt 0.000000 0.000000
vt 0.000000 0.000000
vt 0.000000 0.000000
vt 0.000000 0.000000
s 0
f 7/7/1 1/1/1 2/2/1 8/8/1
f 5/5/2 4/4/2 1/1/2 7/7/2
f 2/2/3 3/3/3 6/6/3 8/8/3
f 5/5/4 6/6/4 3/3/4 4/4/4
f 8/8/5 6/6/5 5/5/5 7/7/5
f 1/1/6 4/4/6 3/3/6 2/2/6
