# Blender 3.1.0
# www.blender.org
mtllib SM_DoorSliding_Glass_01.mtl
o SM_DoorSliding_Glass_01
v -0.000000 0.155000 0.091666
v 1.000000 0.155000 0.091666
v 1.000000 2.220001 0.091667
v -0.000000 2.220001 0.091667
v 0.000000 2.220001 0.073333
v 1.000000 2.220001 0.073333
v 0.000000 0.155000 0.073333
v 1.000000 0.155000 0.073333
vn -0.0000 -1.0000 -0.0000
vn -1.0000 -0.0000 -0.0000
vn 1.0000 -0.0000 -0.0000
vn -0.0000 1.0000 -0.0000
vn -0.0000 -0.0000 -1.0000
vn -0.0000 -0.0000 1.0000
vt 0.000000 0.000000
vt 0.000000 0.000000
vt 0.000000 0.000000
vt 0.000000 0.000000
vt 0.000000 0.000000
vt 0.000000 0.000000
vt 0.000000 0.000000
vt 0.000000 0.000000
s 0
usemtl M_Glass_01
f 7/7/1 8/8/1 2/2/1 1/1/1
f 5/5/2 7/7/2 1/1/2 4/4/2
f 2/2/3 8/8/3 6/6/3 3/3/3
f 5/5/4 4/4/4 3/3/4 6/6/4
f 8/8/5 7/7/5 5/5/5 6/6/5
f 1/1/6 2/2/6 3/3/6 4/4/6
