# Blender 3.1.0
# www.blender.org
mtllib SM_DoorSliding_Rails_01.mtl
o SM_DoorSliding_Rails_01
v 0.000000 0.165000 0.110000
v 1.000000 0.165000 0.110000
v 1.000000 0.165000 0.055000
v 0.000000 0.165000 0.055000
v 1.000003 0.165000 0.073333
v -0.000002 0.165000 0.073333
v -0.000002 2.210000 0.073333
v 1.000003 2.210000 0.073333
v 0.000000 2.210000 0.055000
v 1.000000 2.210000 0.055000
v 1.000000 2.210000 0.110000
v 0.000000 2.210000 0.110000
v -0.000002 2.210000 0.091667
v 1.000003 2.210000 0.091667
v -0.000002 0.165000 0.091666
v 1.000003 0.165000 0.091666
v 0.000000 2.400000 0.110000
v 0.000000 2.400000 0.055000
v 0.000000 2.330000 0.000000
v 0.000000 2.365417 0.000000
v 0.000000 2.330000 0.110000
v 0.000000 2.365417 0.110000
v 0.000000 2.330000 0.055000
v 0.000000 2.220000 0.091667
v 0.000000 2.220000 0.110000
v 0.000000 2.330000 0.110000
v 0.000000 2.330000 0.055000
v 0.000000 2.400000 0.000000
v 0.000000 2.220000 0.073333
v 0.000000 2.220000 0.055000
v 0.000000 0.045000 0.054999
v 0.000000 0.155000 0.110000
v 0.000000 0.155000 0.091666
v 0.000000 0.155000 0.055000
v 0.000000 0.045000 0.110000
v 0.000000 0.000008 0.109999
v 0.000000 0.040000 0.109999
v 0.000000 0.040000 -0.000000
v 0.000000 0.000008 -0.000000
v -0.000000 0.155000 0.073333
v 0.999999 0.155000 0.091666
v 1.000000 0.155000 0.110000
v 0.999999 0.155000 0.055000
v 0.999999 0.045000 0.054999
v 0.999999 0.040000 -0.000000
v 0.999999 0.045000 0.110000
v 1.000000 0.040000 0.109999
v 1.000000 0.000008 -0.000000
v 0.999999 0.000008 0.109999
v 0.999999 0.155000 0.073333
v 1.000000 2.220000 0.073333
v 0.999999 2.330000 0.110000
v 1.000000 2.330000 0.055000
v 1.000000 2.220000 0.055000
v 1.000000 2.220000 0.091667
v 1.000000 2.220000 0.110000
v 1.000000 2.400000 0.110000
v 1.000000 2.330000 0.000000
v 1.000000 2.365417 0.110000
v 1.000000 2.330000 0.055000
v 1.000000 2.400000 0.055000
v 1.000000 2.365417 0.000000
v 1.000000 2.330000 0.110000
v 1.000000 2.400000 0.000000
vn -0.0000 1.0000 -0.0000
vn -0.0000 -1.0000 -0.0000
vn -0.0000 -0.0000 1.0000
vn -0.0000 -0.0000 -1.0000
vt 3.438795 0.175235
vt 3.480803 0.175235
vt 3.438795 3.075701
vt 3.480803 3.075701
vt 3.519395 3.075700
vt 3.480803 3.075700
vt 3.519395 0.175235
vt 3.480803 0.175235
vt 3.492528 3.075704
vt 3.480803 3.075704
vt 3.492528 0.175231
vt 3.480803 0.175231
vt 3.492528 0.175231
vt 0.483968 0.175232
vt 3.492528 3.075704
vt 0.483968 3.075705
vt 3.519395 0.175235
vt 0.483968 0.175235
vt 3.519395 3.075700
vt 0.483968 3.075700
vt 3.438795 3.075701
vt 0.483968 3.075701
vt 3.438795 0.175235
vt 0.483968 0.175235
vt 3.465661 0.175231
vt 0.483968 0.175232
vt 3.465661 3.075704
vt 0.483968 3.075705
vt 3.465661 0.175231
vt 3.480803 0.175231
vt 3.465661 3.075704
vt 3.480803 3.075704
vt 3.646758 0.121889
vt 3.044607 0.121889
vt 3.728117 0.121888
vt 3.809479 0.121888
vt 3.148157 0.121888
vt 3.095766 0.121888
vt 0.308114 0.175236
vt 3.438795 0.175236
vt 3.095766 0.121889
vt 0.308114 0.175235
vt 3.519395 0.175235
vt 3.465661 0.175235
vt 0.469312 0.175235
vt 0.469312 0.175235
vt 3.242622 0.039066
vt 3.148157 0.121888
vt 3.806802 0.023190
vt 3.728117 0.121889
vt 3.044607 0.121888
vt 3.809479 0.121888
vt 3.492528 0.175235
vt 0.469312 0.175235
vt 0.469312 0.175236
vt 3.656656 0.175235
vt 3.519395 0.175235
vt 3.495458 0.175235
vt 3.465661 0.175235
vt 3.495458 0.175235
vt 3.495458 0.175235
vt 3.656657 0.175235
vt 3.438795 0.175235
vt 0.226060 -4.758658
vt 0.435001 -4.758657
vt 0.358603 -4.758657
vt 0.226060 -4.758658
vt 0.358603 -4.758657
vt 0.436194 -4.758658
vt 0.435597 -4.758657
vt 3.495458 0.175234
vt 3.492528 0.175234
vt 3.465661 3.075699
vt 3.495459 3.075699
vt 3.495459 3.075700
vt 3.495458 3.075699
vt 3.656657 3.075699
vt 3.519395 3.075699
vt 0.358604 -0.977691
vt 0.436194 -0.977691
vt 3.656657 3.075699
vt 3.438795 3.075699
vt 0.358604 -0.977690
vt 0.226060 -0.977690
vt 0.435598 -0.977690
vt 0.226060 -0.977691
vt 0.435002 -0.977691
vt 3.495459 3.075699
vt 3.492528 3.075699
vt 3.492528 3.075700
vt 0.469313 3.075700
vt 0.308114 3.075699
vt 3.438795 3.075699
vt 0.308114 3.075700
vt 3.519395 3.075700
vt 0.469313 3.075700
vt 3.465661 3.075700
vt 0.469313 3.075700
vt 0.469313 3.075700
vt 3.646758 3.049733
vt 3.044607 3.049732
vt 3.809479 3.049732
vt 3.148157 3.049733
vt 3.095766 3.049733
vt 5.126994 1.343382
vt 3.728118 3.049732
vt 3.728117 3.049733
vt 3.095766 3.049732
vt 4.781245 1.577689
vt 3.148157 3.049732
vt 3.044607 3.049732
vt 3.809479 3.049732
s 0
usemtl M_Aluminium_Black
f 1/1/1 2/3/1 16/31/1 15/29/1
f 7/13/2 9/17/2 10/19/2 8/15/2
f 12/23/2 13/25/2 14/27/2 11/21/2
f 6/11/1 5/9/1 3/5/1 4/7/1
f 25/46/3 56/99/3 52/92/3 21/39/3
f 23/42/4 53/94/4 54/96/4 30/55/4
f 29/53/2 51/90/2 55/97/2 24/44/2
f 21/40/1 52/93/1 53/95/1 23/43/1
f 30/55/4 54/96/4 10/20/4 9/18/4
f 12/24/3 11/22/3 56/99/3 25/46/3
f 24/45/4 55/98/4 14/28/4 13/26/4
f 7/14/3 8/16/3 51/91/3 29/54/3
f 34/61/4 43/76/4 44/77/4 31/56/4
f 40/71/3 50/88/3 5/10/3 6/12/3
f 32/58/3 42/75/3 2/4/3 1/2/3
f 35/62/3 46/81/3 42/75/3 32/58/3
f 39/70/2 48/85/2 49/86/2 36/64/2
f 33/59/1 41/73/1 50/89/1 40/72/1
f 4/8/4 3/6/4 43/76/4 34/61/4
f 36/65/3 49/87/3 47/83/3 37/66/3
f 15/30/4 16/32/4 41/74/4 33/60/4
f 48/85/4 39/70/4 38/68/4 45/79/4
f 46/82/2 35/63/2 31/57/2 44/78/2
f 45/80/1 38/69/1 37/67/1 47/84/1
f 63/109/2 26/47/2 27/49/2 60/105/2
f 17/33/1 57/100/1 61/107/1 18/35/1
f 19/36/2 58/102/2 60/106/2 27/50/2
f 26/48/3 63/110/3 59/104/3 22/41/3
f 28/51/4 64/111/4 62/108/4 20/38/4
f 18/35/1 61/107/1 64/112/1 28/52/1
f 20/38/4 62/108/4 58/103/4 19/37/4
f 22/41/3 59/104/3 57/101/3 17/34/3
