# Blender 3.1.0
# www.blender.org
mtllib SM_DoorSliding_Rails_AluThreshhold_01.mtl
o SM_DoorSliding_Rails_AluThreshhold_01
v 0.000000 0.045000 0.109999
v 0.000000 0.045000 0.055000
v 0.000000 0.040000 -0.000000
v 0.000000 0.045000 -0.000000
v 0.000000 0.040000 0.109999
v 0.000000 0.040000 0.055000
v 1.000000 0.040000 -0.000000
v 1.000000 0.045000 -0.000000
v 1.000001 0.045000 0.109999
v 1.000001 0.045000 0.055000
v 1.000001 0.040000 0.109999
v 1.000001 0.040000 0.055000
vn -0.0000 1.0000 -0.0000
vn -0.0000 -1.0000 -0.0000
vn -0.0000 -0.0000 1.0000
vn -0.0000 -0.0000 -1.0000
vt 0.528054 0.518750
vt 0.528054 0.500568
vt 0.528054 0.506250
vt 0.528054 0.493750
vt 0.528054 0.499432
vt 0.528054 0.493750
vt 0.528054 0.500568
vt 0.528054 0.518750
vt 0.528054 0.499432
vt 0.528054 0.506250
vt 0.977881 0.493750
vt 0.977881 0.499432
vt 0.977881 0.493750
vt 0.977881 0.500568
vt 0.977881 0.518750
vt 0.977881 0.500568
vt 0.977881 0.506250
vt 0.977881 0.518750
vt 0.977881 0.499432
vt 0.977881 0.506250
s 0
usemtl M_Aluminium_01
f 10/17/1 2/3/1 1/1/1 9/15/1
f 11/18/2 5/8/2 6/10/2 12/20/2
f 12/20/2 6/10/2 3/4/2 7/11/2
f 8/13/1 4/6/1 2/3/1 10/17/1
f 9/16/3 1/2/3 5/9/3 11/19/3
f 4/7/4 8/14/4 7/12/4 3/5/4
