# Blender 3.1.0
# www.blender.org
mtllib SM_DoorSliding_Jamb_01.mtl
o SM_DoorSliding_Jamb_01
v 0.193439 0.164992 0.110000
v 0.190000 0.168432 0.110000
v 0.190000 0.164992 0.109500
v 0.190000 0.168432 0.055000
v 0.193439 0.164992 0.055000
v 0.190000 0.164992 0.055500
v 0.193437 0.164992 0.073333
v 0.190000 0.168429 0.073333
v 0.190000 0.164992 0.073333
v 0.183434 0.154992 0.091667
v 0.180000 0.158426 0.091667
v 0.180000 0.154992 0.091667
v 0.070001 2.326600 0.110000
v 0.073393 2.329993 0.110000
v 0.070001 2.329993 0.109500
v 0.073393 2.329993 0.055000
v 0.070001 2.326600 0.055000
v 0.070001 2.329993 0.055500
v 0.070001 0.048384 0.055000
v 0.073393 0.044992 0.055000
v 0.070001 0.044992 0.055500
v 0.070001 0.048384 0.110000
v 0.073393 0.044992 0.110000
v 0.070001 0.044992 0.109500
v 0.180000 2.216558 0.091667
v 0.183434 2.219993 0.091667
v 0.180000 2.219993 0.091667
v 0.190000 2.206556 0.073334
v 0.193437 2.209992 0.073334
v 0.190000 2.209992 0.073334
v 0.190000 2.206553 0.055000
v 0.193439 2.209992 0.055000
v 0.190000 2.209992 0.055500
v 0.190000 2.206553 0.110000
v 0.193439 2.209992 0.110000
v 0.190000 2.209992 0.109500
v 0.180000 2.216545 0.055000
v 0.183447 2.219993 0.055000
v 0.180000 2.219993 0.055500
v 0.180000 2.216545 0.110000
v 0.183448 2.219993 0.110000
v 0.180000 2.219993 0.109500
v 0.183434 2.219993 0.073334
v 0.180000 2.216558 0.073334
v 0.180000 2.219993 0.073334
v 0.193437 2.209992 0.091667
v 0.190000 2.206556 0.091667
v 0.190000 2.209992 0.091667
v 0.183447 0.154992 0.055000
v 0.180000 0.158440 0.055000
v 0.180000 0.154992 0.055500
v 0.183448 0.154992 0.110000
v 0.180000 0.158440 0.110000
v 0.180000 0.154992 0.109500
v 0.183434 0.154992 0.073333
v 0.180000 0.158426 0.073333
v 0.180000 0.154992 0.073333
v 0.190000 0.168429 0.091667
v 0.193437 0.164992 0.091667
v 0.190000 0.164992 0.091667
v 0.070000 0.039992 0.110000
v 0.034583 0.039992 0.110000
v 0.000000 0.039992 0.110000
v 0.000000 0.039992 0.055000
v 0.000000 0.039992 -0.000000
v 0.034583 0.039992 -0.000000
v 0.070000 0.039992 -0.000000
v 0.070000 0.039992 0.055000
v 0.003518 2.399992 0.110000
v 0.000000 2.396474 0.110000
v 0.000000 2.399992 0.109500
v 0.000000 2.396500 0.055000
v 0.003493 2.399992 0.055000
v 0.000000 2.399992 0.055000
v 0.000000 2.396486 0.000000
v 0.003507 2.399992 0.000000
v -0.000000 2.399992 0.000500
v 0.070000 2.326465 0.055000
v 0.073527 2.329992 0.055000
v 0.070000 2.329992 0.055000
v 0.038129 2.365409 0.000000
v 0.034583 2.361864 0.000000
v 0.034583 2.365409 0.000500
v 0.073529 2.329992 0.000000
v 0.070000 2.326463 0.000000
v 0.070000 2.329992 0.000500
v 0.034583 2.361828 0.110000
v 0.038164 2.365409 0.110000
v 0.034583 2.365409 0.109500
v 0.073592 2.329992 0.110000
v 0.070000 2.326401 0.110000
v 0.070001 2.329992 0.109500
v 0.034583 0.039992 0.055000
v 0.000000 -0.000000 0.110000
v 0.000000 0.039992 -0.000000
v 0.000000 0.039992 0.110000
v 0.000000 0.000000 0.000000
v 0.193440 2.399992 0.110000
v 0.193439 2.399992 0.055000
v 0.193439 2.329992 0.000000
v 0.193440 2.365409 0.000000
v 0.193440 2.329993 0.110000
v 0.193439 2.365409 0.110000
v 0.193439 2.329993 0.055000
v 0.193439 2.219993 0.091667
v 0.193439 2.219993 0.110000
v 0.193439 2.329992 0.110000
v 0.193440 2.329992 0.055000
v 0.193439 2.399992 0.000000
v 0.193439 2.219993 0.073334
v 0.193440 2.219993 0.055000
v 0.193439 0.044992 0.055000
v 0.193439 0.154992 0.110000
v 0.193439 0.154992 0.091667
v 0.193440 0.154992 0.055000
v 0.193439 0.044992 0.110000
v 0.193439 -0.000000 0.110000
v 0.193439 0.039992 0.110000
v 0.193439 0.039992 -0.000000
v 0.193439 0.000000 0.000000
v 0.193439 0.154992 0.073333
vn -0.0000 -0.0000 1.0000
vn -0.0000 1.0000 -0.0000
vn -0.0000 -0.0000 -1.0000
vn 1.0000 -0.0000 -0.0000
vn -0.0000 -1.0000 -0.0000
vn -1.0000 -0.0000 -0.0000
vn -0.1422 0.1422 -0.9796
vn 0.1422 -0.1422 -0.9796
vn 0.1432 -0.1432 0.9793
vn -0.1432 0.1432 0.9793
vn 0.1422 -0.1422 0.9796
vn -0.1422 0.1422 0.9796
vn 0.1432 0.1432 0.9793
vn -0.1432 -0.1432 0.9793
vn 0.1422 0.1422 0.9796
vn -0.1422 -0.1422 0.9796
vn -0.0002 -1.0000 -0.0000
vn -0.0001 -1.0000 -0.0000
vn -0.1422 -0.1422 -0.9796
vn 0.1422 0.1422 -0.9796
vn -0.1432 -0.1432 -0.9793
vn 0.1432 0.1432 -0.9793
vn 0.1432 -0.1432 -0.9793
vn -0.1432 0.1432 -0.9793
vn 0.1386 0.1386 -0.9806
vn -0.1386 -0.1386 -0.9806
vn -0.1368 -0.1368 0.9811
vn 0.1368 0.1368 0.9811
vn 0.1391 0.1390 -0.9805
vn -0.1390 -0.1391 -0.9805
vn -0.1381 -0.1383 0.9807
vn 0.1383 0.1381 0.9807
vt 1.115892 0.742876
vt 1.115448 0.785330
vt 3.480803 0.175235
vt 1.110408 0.748361
vt 1.110852 0.747917
vt -2.000316 0.748361
vt 1.110852 0.742877
vt -2.001049 0.743321
vt 1.110408 0.784597
vt 1.110408 0.748362
vt 1.110852 0.747917
vt -2.080916 0.748361
vt 3.480803 0.175235
vt 1.115894 0.742876
vt 1.115449 0.704730
vt 1.110852 0.742877
vt -2.080184 0.743321
vt 1.110408 0.705462
vt 3.480803 0.175231
vt 1.115445 0.743321
vt 1.115445 0.731596
vt 1.110408 0.748357
vt -2.054050 0.748357
vt 1.110409 0.743321
vt -2.054050 0.743321
vt 1.110409 0.731597
vt 3.465661 0.160573
vt 3.495458 0.160573
vt 1.100786 0.728666
vt 1.100786 0.758463
vt 1.095754 0.733699
vt -2.027182 0.733699
vt 1.095753 0.728666
vt -2.027182 0.728666
vt 1.095753 0.758463
vt -2.000317 3.911040
vt 0.934502 3.910979
vt 3.438795 -0.000686
vt 0.308114 -0.000686
vt 0.939526 0.785330
vt 0.939457 3.915925
vt 0.934555 0.784597
vt -2.001048 3.916010
vt 0.934486 3.915927
vt 0.308114 -0.000686
vt 3.519395 -0.000686
vt 0.939526 0.704730
vt 0.939459 3.915937
vt -2.080916 3.911039
vt 0.934502 3.910974
vt 0.934555 0.705463
vt -2.080183 3.916010
vt 0.934502 3.915943
vt 0.934555 0.572439
vt -2.080916 0.572439
vt 0.935008 0.571985
vt 3.656657 -0.000686
vt 0.939526 0.704730
vt 0.939979 0.567014
vt 3.519395 -0.000686
vt -2.080184 0.567468
vt 0.934555 0.705462
vt 0.935007 0.567014
vt 0.934555 0.572439
vt 0.935010 0.571985
vt -2.000316 0.572439
vt 3.656657 -0.000686
vt 0.939979 0.567014
vt 0.939527 0.785330
vt 3.438795 -0.000686
vt 0.935007 0.567014
vt -2.001049 0.567468
vt 0.934555 0.784597
vt 1.095753 3.749781
vt -2.027182 3.749779
vt 0.469312 0.160573
vt 3.465661 0.160573
vt 1.100786 3.754812
vt 1.100786 0.758464
vt 1.095753 3.754812
vt 1.095753 0.758464
vt -2.027182 3.754812
vt 1.110408 3.735120
vt -2.054050 3.735121
vt 0.483968 0.175232
vt 1.115445 3.740157
vt 1.115445 0.731597
vt 1.110408 3.740157
vt 1.110408 0.731597
vt -2.054050 3.740157
vt 1.110408 3.735117
vt -2.080916 3.735116
vt 1.110851 3.735561
vt 0.483968 0.175235
vt 1.115448 0.704730
vt 1.115894 3.740600
vt 1.110408 0.705462
vt -2.080184 3.740157
vt 1.110852 3.740602
vt 1.110408 3.735117
vt 1.110852 3.735561
vt -2.000316 3.735116
vt 0.483968 0.175235
vt 1.115892 3.740601
vt 1.115448 0.785330
vt 1.110852 3.740601
vt 1.110408 0.784597
vt -2.001049 3.740157
vt 1.095753 3.749760
vt 1.096197 3.750204
vt 1.096089 3.750150
vt 0.469312 0.160592
vt 1.101249 3.755327
vt 1.096197 3.755327
vt 1.096089 3.755199
vt 1.095754 3.749761
vt 1.096090 3.750149
vt 1.096198 3.750205
vt 0.469312 0.160593
vt 1.101250 3.755256
vt 1.096090 3.755200
vt 1.096198 3.755256
vt 3.492528 0.160573
vt 0.469312 0.160573
vt 1.100787 3.754811
vt 1.100786 0.731596
vt 1.095754 3.749779
vt -2.054049 3.749779
vt 1.095754 3.754812
vt 1.095754 0.731597
vt -2.054049 3.754812
vt 0.483968 0.175232
vt 1.115445 3.740156
vt 1.115445 0.758463
vt 1.110407 3.735121
vt -2.027183 3.735121
vt 1.110408 3.740158
vt 1.110409 0.758463
vt -2.027183 3.740157
vt 3.495459 0.160592
vt 1.101253 0.728219
vt 1.095753 0.733719
vt 1.096201 0.733271
vt 1.096200 0.728218
vt 1.101250 0.728222
vt 3.495458 0.160593
vt 1.095754 0.733719
vt 1.096198 0.733274
vt 1.096198 0.728222
vt 3.492528 0.160573
vt 3.495458 0.160573
vt 1.100786 0.731596
vt 1.100787 0.728666
vt -2.054049 0.733699
vt 1.095754 0.733699
vt -2.054049 0.728666
vt 1.095754 0.731597
vt 1.095754 0.728666
vt 1.110407 0.748357
vt -2.027183 0.748357
vt 3.480803 0.175231
vt 1.115445 0.743321
vt 1.115445 0.758463
vt 1.110408 0.743320
vt -2.027183 0.743321
vt 1.110408 0.758463
vt 0.107114 0.019524
vt 0.107114 2.908471
vt 0.054723 0.019524
vt 0.054723 2.908471
vt 0.003565 0.019524
vt 3.439167 0.019524
vt 0.003565 2.908471
vt 3.357806 0.019524
vt 0.003565 2.827111
vt 3.276446 0.019524
vt 0.003565 0.019524
vt 0.003565 2.745750
vt 0.054723 0.019524
vt 0.054723 2.745750
vt 3.276446 0.019524
vt 0.107114 0.019524
vt 0.107114 2.745750
vt 3.357806 0.019524
vt 0.107114 2.827111
vt 3.044607 -0.159058
vt 0.008769 2.908471
vt 0.008769 3.510621
vt 3.646758 -0.159058
vt 3.439167 3.505417
vt 0.003565 3.505417
vt 0.003565 2.907732
vt 3.438427 3.510621
vt 0.003565 3.510621
vt 3.357806 3.505455
vt 0.008731 2.827111
vt 3.728117 -0.159096
vt 3.357806 3.510621
vt 0.003565 2.827111
vt 3.276446 3.505434
vt 0.003565 3.505434
vt 3.809479 -0.159075
vt 3.044607 -0.159075
vt 0.008751 2.745750
vt 0.008751 3.510621
vt 3.277186 3.510621
vt 0.003564 2.746490
vt 0.003564 3.510621
vt 3.357806 3.401854
vt 0.112332 2.827111
vt 3.728117 -0.055495
vt 3.357806 3.407072
vt 0.107114 2.827111
vt 3.095766 -0.107860
vt 0.059967 3.459463
vt 0.054723 3.454218
vt 0.054722 3.459463
vt 3.809479 -0.055493
vt 3.148157 -0.055493
vt 0.112334 2.745750
vt 0.112334 3.407072
vt 3.276446 3.401852
vt 0.107114 3.401852
vt 3.277186 3.407072
vt 0.107114 2.746490
vt 0.107114 3.407072
vt 0.054723 3.454165
vt 3.095766 -0.107806
vt 0.060020 3.459463
vt 0.054723 3.459463
vt 0.112427 3.407072
vt 3.148157 -0.055399
vt 0.107114 3.401759
vt 0.107115 3.407072
vt 0.054723 2.827111
vt 0.226060 -5.128189
vt 0.435001 -5.128188
vt 0.226060 -4.782420
vt 0.358603 -4.782419
vt 0.436194 -5.128189
vt 0.358603 -5.128188
vt 0.358603 -5.128188
vt 0.226060 -4.782419
vt 0.226060 -5.128188
vt 0.435598 -4.782420
vt 0.435597 -5.128188
vt 3.044607 0.121889
vt 3.646758 0.121889
vt 3.728117 0.121888
vt 3.809479 0.121888
vt 3.148157 0.121888
vt 3.095766 0.121888
vt 3.438795 0.175236
vt 0.308114 0.175236
vt 3.095766 0.121889
vt 0.308114 0.175235
vt 3.519395 0.175235
vt 0.469312 0.175235
vt 3.465661 0.175235
vt 0.469312 0.175235
vt 3.148157 0.121888
vt 3.242622 0.039066
vt 3.728117 0.121889
vt 3.806802 0.023190
vt 3.809479 0.121888
vt 3.044607 0.121888
vt 3.492528 0.175235
vt 0.469312 0.175235
vt 0.469312 0.175236
vt 3.656656 0.175235
vt 3.519395 0.175235
vt 3.495458 0.175235
vt 3.465661 0.175235
vt 3.495458 0.175235
vt 3.495459 0.175235
vt 3.656657 0.175235
vt 3.438795 0.175235
vt 0.226060 -4.758658
vt 0.435001 -4.758657
vt 0.358603 -4.758657
vt 0.226060 -4.758658
vt 0.436194 -4.758658
vt 0.358603 -4.758657
vt 0.435597 -4.758657
vt 3.492528 0.175234
vt 3.495458 0.175234
s 0
usemtl M_Aluminium_Black
f 22/64/1 53/147/1 40/116/1 13/37/1
f 10/27/2 114/273/2 121/285/2 55/150/2
f 38/112/3 16/45/3 104/256/3 111/269/3
f 14/38/2 102/253/2 104/257/2 16/46/2
f 10/28/3 59/161/3 114/274/3
f 38/112/3 111/269/3 32/94/3
f 53/147/1 2/4/1 34/100/1 40/116/1
f 49/140/3 5/13/3 115/275/3
f 11/32/4 56/154/4 44/128/4 25/75/4
f 23/67/1 116/276/1 113/272/1 52/146/1
f 41/119/1 35/103/1 106/260/1
f 2/6/4 58/160/4 47/136/4 34/102/4
f 26/76/3 105/258/3 46/132/3
f 26/77/5 43/123/5 110/267/5 105/259/5
f 43/124/1 29/85/1 110/268/1
f 58/159/3 11/31/3 25/74/3 47/135/3
f 56/155/1 8/22/1 28/83/1 44/127/1
f 50/142/3 19/54/3 17/50/3 37/109/3
f 8/23/4 4/12/4 31/92/4 28/84/4
f 22/66/6 13/36/6 17/49/6 19/55/6
f 4/10/3 50/142/3 37/109/3 31/91/3
f 49/140/3 115/275/3 112/270/3 20/57/3
f 14/39/1 41/119/1 106/260/1 102/254/1
f 55/151/1 121/286/1 7/19/1
f 14/40/2 16/47/2 18/51/2 15/42/2
f 5/14/7 49/141/7 51/144/7 6/16/7
f 6/16/8 51/144/8 50/143/8 4/11/8
f 53/148/9 22/65/9 24/71/9 54/149/9
f 54/149/10 24/71/10 23/68/10 52/145/10
f 59/162/3 10/29/3 12/33/3 60/164/3
f 60/164/3 12/33/3 11/31/3 58/159/3
f 15/43/6 18/52/6 17/49/6 13/36/6
f 2/5/11 53/148/11 54/149/11 3/7/11
f 3/7/12 54/149/12 52/145/12 1/1/12
f 56/154/4 11/32/4 12/34/4 57/156/4
f 57/157/2 12/35/2 10/30/2 55/152/2
f 58/160/4 2/6/4 3/8/4 60/165/4
f 60/166/2 3/9/2 1/2/2 59/163/2
f 22/66/6 19/55/6 21/61/6 24/72/6
f 24/73/5 21/62/5 20/58/5 23/69/5
f 8/22/1 56/155/1 57/158/1 9/24/1
f 9/24/1 57/158/1 55/153/1 7/20/1
f 4/12/4 8/23/4 9/25/4 6/17/4
f 6/18/2 9/26/2 7/21/2 5/15/2
f 44/127/1 28/83/1 30/88/1 45/129/1
f 45/129/1 30/88/1 29/86/1 43/125/1
f 13/37/13 40/117/13 42/121/13 15/44/13
f 15/44/14 42/122/14 41/120/14 14/41/14
f 26/78/3 46/133/3 48/137/3 27/80/3
f 27/80/3 48/137/3 47/135/3 25/74/3
f 40/118/15 34/101/15 36/106/15 42/122/15
f 42/122/16 36/106/16 35/104/16 41/120/16
f 46/134/5 35/105/5 36/107/5 48/138/5
f 48/139/4 36/108/4 34/102/4 47/136/4
f 43/126/17 26/79/17 27/81/17 45/130/17
f 45/131/4 27/82/4 25/75/4 44/128/4
f 32/95/18 29/87/18 30/89/18 33/97/18
f 33/98/4 30/90/4 28/84/4 31/92/4
f 38/113/19 32/96/19 33/99/19 39/114/19
f 39/114/20 33/99/20 31/93/20 37/110/20
f 16/48/21 38/113/21 39/114/21 18/53/21
f 18/53/22 39/115/22 37/111/22 17/50/22
f 19/56/23 50/143/23 51/144/23 21/63/23
f 21/63/24 51/144/24 49/141/24 20/59/24
f 52/146/1 113/272/1 1/3/1
f 73/197/2 99/249/2 109/265/2 76/202/2
f 88/228/1 103/255/1 98/247/1 69/186/1
f 76/203/3 109/266/3 101/252/3 81/214/3
f 68/184/4 67/181/4 85/222/4 78/209/4
f 90/232/1 107/261/1 103/255/1 88/228/1
f 84/218/5 100/250/5 108/263/5 79/211/5
f 65/176/6 64/174/6 72/195/6 75/200/6
f 62/169/1 61/167/1 91/233/1 87/227/1
f 81/214/3 101/252/3 100/251/3 84/219/3
f 67/182/3 66/179/3 82/216/3 85/223/3
f 63/171/1 62/169/1 87/227/1 70/191/1
f 63/172/6 70/190/6 72/195/6 64/174/6
f 66/179/3 65/177/3 75/201/3 82/216/3
f 73/196/2 74/199/2 71/192/2 69/187/2
f 74/198/6 72/195/6 70/190/6 71/193/6
f 72/195/6 74/198/6 77/206/6 75/200/6
f 74/199/2 73/196/2 76/204/2 77/207/2
f 85/222/4 86/224/4 80/212/4 78/209/4
f 86/225/5 84/220/5 79/210/5 80/213/5
f 82/216/25 83/217/25 86/226/25 85/223/25
f 83/217/26 81/215/26 84/221/26 86/226/26
f 88/229/27 89/230/27 92/234/27 90/231/27
f 89/230/28 87/227/28 91/233/28 92/234/28
f 75/201/29 77/208/29 83/217/29 82/216/29
f 77/208/30 76/205/30 81/215/30 83/217/30
f 69/188/31 71/194/31 89/230/31 88/229/31
f 71/194/32 70/191/32 87/227/32 89/230/32
f 78/209/4 91/233/4 61/168/4 68/184/4
f 78/209/4 80/213/4 92/234/4 91/233/4
f 80/213/18 79/211/18 90/231/18 92/234/18
f 69/189/2 98/248/2 99/249/2 73/197/2
f 63/173/5 64/175/5 93/235/5 62/170/5
f 62/170/5 93/235/5 68/185/5 61/168/5
f 64/175/5 65/178/5 66/180/5 93/235/5
f 93/235/5 66/180/5 67/183/5 68/185/5
f 94/236/5 97/246/5 120/284/5 117/278/5
f 94/237/1 117/279/1 118/280/1 96/242/1
f 94/238/6 96/243/6 95/239/6 97/245/6
f 107/262/5 90/232/5 79/211/5 108/264/5
f 119/282/2 95/240/2 96/244/2 118/281/2
f 116/277/5 23/70/5 20/60/5 112/271/5
f 120/284/3 97/246/3 95/241/3 119/283/3
