# Blender 3.1.0
# www.blender.org
mtllib SM_DoorSliding_Impost_AluThreshhold_01.mtl
o SM_DoorSliding_Impost_AluThreshhold_01
v 0.194646 0.044992 0.110000
v 0.194646 0.044992 0.055000
v 0.194645 0.039992 -0.000000
v 0.194646 0.039992 0.110000
v 0.194645 0.044992 -0.000000
v 0.194646 0.039992 0.055000
v -0.000001 0.039992 -0.000000
v -0.000001 0.044992 -0.000000
v 0.000000 0.044992 0.110000
v 0.000000 0.044992 0.055000
v 0.000000 0.039992 0.110000
v 0.000000 0.039992 0.055000
vn -0.0000 -0.0000 -1.0000
vn -0.0000 -0.0000 1.0000
vn -0.0000 1.0000 -0.0000
vn -0.0000 -1.0000 -0.0000
vt 1.022119 0.500568
vt 1.022119 0.518750
vt 1.022119 0.506250
vt 1.022119 0.499432
vt 1.022119 0.493750
vt 1.022119 0.499432
vt 1.022119 0.518750
vt 1.022119 0.500568
vt 1.022119 0.493750
vt 1.022119 0.506250
vt 0.977881 0.499432
vt 0.977881 0.493750
vt 0.977881 0.500568
vt 0.977881 0.493750
vt 0.977881 0.500568
vt 0.977881 0.518750
vt 0.977881 0.506250
vt 0.977881 0.499432
vt 0.977881 0.518750
vt 0.977881 0.506250
s 0
usemtl M_Aluminium_01
f 8/13/1 5/8/1 3/4/1 7/11/1
f 1/1/2 9/15/2 11/18/2 4/6/2
f 5/9/3 8/14/3 10/17/3 2/3/3
f 6/10/4 12/20/4 7/12/4 3/5/4
f 4/7/4 11/19/4 12/20/4 6/10/4
f 2/3/3 10/17/3 9/16/3 1/2/3
