# Blender 3.1.0
# www.blender.org
mtllib SM_DoorSliding_Impost_01.mtl
o SM_DoorSliding_Impost_01
v 0.003440 0.168432 0.110000
v 0.000000 0.164992 0.110000
v 0.003440 0.164992 0.109500
v 0.003439 0.168432 0.055000
v 0.000000 0.164992 0.055000
v 0.003439 0.164992 0.055500
v 0.000003 0.164992 0.073333
v 0.003439 0.168429 0.073333
v 0.003439 0.164992 0.073333
v 0.010005 0.154992 0.091667
v 0.013440 0.158426 0.091667
v 0.013440 0.154992 0.091667
v 0.120048 0.044992 0.055000
v 0.123440 0.048384 0.055000
v 0.123440 0.044992 0.055500
v 0.120048 0.044992 0.110000
v 0.123440 0.048384 0.110000
v 0.123440 0.044992 0.109500
v 0.120048 2.329993 0.110000
v 0.123440 2.326600 0.110000
v 0.123440 2.329993 0.109500
v 0.123440 2.326600 0.055000
v 0.120048 2.329993 0.055000
v 0.123440 2.329993 0.055500
v 0.010005 2.219993 0.091667
v 0.013440 2.216558 0.091667
v 0.013440 2.219993 0.091667
v 0.000003 2.209992 0.073334
v 0.003439 2.206556 0.073334
v 0.003439 2.209992 0.073334
v 0.000000 2.209992 0.055000
v 0.003439 2.206553 0.055000
v 0.003439 2.209992 0.055500
v 0.000000 2.209992 0.110000
v 0.003440 2.206553 0.110000
v 0.003440 2.209992 0.109500
v 0.009992 2.219993 0.055000
v 0.013440 2.216545 0.055000
v 0.013440 2.219993 0.055500
v 0.009992 2.219993 0.110000
v 0.013440 2.216545 0.110000
v 0.013440 2.219993 0.109500
v 0.013440 2.216558 0.073334
v 0.010005 2.219993 0.073334
v 0.013440 2.219993 0.073334
v 0.003439 2.206556 0.091667
v 0.000003 2.209992 0.091667
v 0.003439 2.209992 0.091667
v 0.013440 0.158440 0.055000
v 0.009992 0.154992 0.055000
v 0.013440 0.154992 0.055500
v 0.013440 0.158440 0.110000
v 0.009992 0.154992 0.110000
v 0.013440 0.154992 0.109500
v 0.013440 0.158426 0.073333
v 0.010005 0.154992 0.073333
v 0.013440 0.154992 0.073333
v 0.003439 0.168429 0.091667
v 0.000003 0.164992 0.091667
v 0.003439 0.164992 0.091667
v 0.191206 0.168432 0.055000
v 0.194645 0.164992 0.055000
v 0.191206 0.164992 0.054500
v 0.191206 0.168432 -0.000001
v 0.194645 0.164992 -0.000001
v 0.191206 0.164992 0.000499
v 0.194643 0.164992 0.018333
v 0.191206 0.168429 0.018333
v 0.191206 0.164992 0.018333
v 0.184640 0.154992 0.036666
v 0.181206 0.158426 0.036666
v 0.181206 0.154992 0.036666
v 0.074597 0.044992 -0.000001
v 0.071206 0.048384 -0.000001
v 0.071206 0.044992 0.000499
v 0.074597 0.044992 0.055000
v 0.071206 0.048384 0.055000
v 0.071206 0.044992 0.054500
v 0.074597 2.329992 0.055000
v 0.071205 2.326600 0.055000
v 0.071205 2.329992 0.054500
v 0.071205 2.326600 -0.000000
v 0.074597 2.329992 -0.000000
v 0.071205 2.329992 0.000500
v 0.184640 2.219993 0.036667
v 0.181206 2.216558 0.036667
v 0.181206 2.219993 0.036667
v 0.194643 2.209992 0.018333
v 0.191206 2.206556 0.018333
v 0.191206 2.209992 0.018333
v 0.194645 2.209992 -0.000000
v 0.191206 2.206553 -0.000000
v 0.191206 2.209992 0.000500
v 0.194645 2.209992 0.055000
v 0.191206 2.206553 0.055000
v 0.191206 2.209992 0.054500
v 0.184653 2.219993 -0.000000
v 0.181206 2.216545 -0.000000
v 0.181206 2.219993 0.000500
v 0.184653 2.219993 0.055000
v 0.181206 2.216545 0.055000
v 0.181206 2.219993 0.054500
v 0.181206 2.216558 0.018333
v 0.184640 2.219993 0.018333
v 0.181206 2.219993 0.018333
v 0.191206 2.206556 0.036667
v 0.194643 2.209992 0.036667
v 0.191206 2.209992 0.036667
v 0.181206 0.158440 -0.000001
v 0.184653 0.154992 -0.000001
v 0.181206 0.154992 0.000499
v 0.181206 0.158440 0.055000
v 0.184653 0.154992 0.055000
v 0.181206 0.154992 0.054500
v 0.181206 0.158426 0.018333
v 0.184640 0.154992 0.018333
v 0.181206 0.154992 0.018333
v 0.191206 0.168429 0.036666
v 0.194643 0.164992 0.036666
v 0.191206 0.164992 0.036666
v -0.000000 0.154992 0.091667
v 0.194645 0.154992 0.055000
v 0.194645 0.154992 0.036666
v 0.000000 0.154992 0.110000
v -0.000000 0.154992 0.055000
v 0.194645 0.044992 -0.000001
v 0.194645 0.044992 0.055000
v -0.000000 0.044992 0.055000
v 0.194646 0.039992 -0.000000
v -0.000000 0.039992 -0.000000
v 0.194645 0.154992 -0.000001
v -0.000000 0.044992 0.110000
v 0.000000 0.039992 0.110000
v 0.194646 0.039992 0.110000
v 0.000000 0.000000 0.000000
v 0.194645 0.000000 0.000000
v 0.194645 0.154992 0.018333
v 0.194646 -0.000000 0.110000
v -0.000000 -0.000000 0.110000
v -0.000000 0.154992 0.073333
v 0.000000 2.219993 0.073334
v -0.000000 2.329993 0.110000
v 0.000000 2.329993 0.055000
v 0.000000 2.219993 0.055000
v 0.000000 2.219993 0.091667
v 0.000000 2.219993 0.110000
v 0.194645 2.329992 0.055000
v 0.194645 2.329992 -0.000000
v 0.194645 2.219993 0.036667
v 0.194645 2.219993 0.055000
v 0.194646 2.219993 0.018333
v 0.194645 2.219993 -0.000000
v 0.194645 2.399992 0.055000
v 0.194645 2.365409 0.000000
v 0.194645 2.329992 0.055000
v 0.194645 2.365409 0.110000
v 0.194645 2.399992 0.110000
v 0.194645 2.329992 0.110000
v 0.194645 2.399992 0.000000
v 0.194645 2.329992 0.000000
v -0.000000 2.399992 0.110000
v -0.000000 2.329992 0.000000
v -0.000000 2.365409 0.110000
v -0.000000 2.329992 0.055000
v -0.000000 2.399992 0.055000
v -0.000000 2.365409 0.000000
v -0.000000 2.329992 0.110000
v -0.000000 2.399992 0.000000
vn 1.0000 -0.0000 -0.0000
vn -0.0000 -0.0000 1.0000
vn -1.0000 -0.0000 -0.0000
vn -0.0000 -0.0000 -1.0000
vn -0.0000 -1.0000 -0.0000
vn -0.0000 1.0000 -0.0000
vn -0.1432 -0.1432 0.9793
vn 0.1432 0.1432 0.9793
vn -0.1422 -0.1422 0.9796
vn 0.1422 0.1422 0.9796
vn 0.1422 0.1422 -0.9796
vn -0.1422 -0.1422 -0.9796
vn 0.1432 -0.1432 0.9793
vn -0.1432 0.1432 0.9793
vn 0.1422 -0.1422 0.9796
vn -0.1422 0.1422 0.9796
vn 0.0002 -1.0000 -0.0000
vn 0.0001 -1.0000 -0.0000
vn -0.1422 0.1422 -0.9796
vn 0.1422 -0.1422 -0.9796
vn -0.1432 0.1432 -0.9793
vn 0.1432 -0.1432 -0.9793
vn -0.1432 -0.1432 -0.9793
vn 0.1432 0.1432 -0.9793
vn 0.0001 1.0000 -0.0000
vn -0.0001 -1.0000 -0.0000
vt 4.020955 0.748361
vt 4.021178 0.748583
vt -2.000317 0.748361
vt 4.016140 0.743543
vt 4.015914 0.785330
vt 3.480803 3.075701
vt 4.021179 0.743543
vt -2.001049 0.743321
vt 4.020955 0.784597
vt 4.020954 0.748361
vt -2.080916 0.748361
vt 4.021177 0.748583
vt 4.015915 0.704730
vt 4.016138 0.743543
vt 3.480803 3.075700
vt -2.080184 0.743321
vt 4.020954 0.705463
vt 4.021176 0.743543
vt 4.015919 0.731597
vt 4.015920 0.743321
vt 3.480803 3.075704
vt -2.054050 0.748357
vt 4.020954 0.748357
vt -2.054050 0.743321
vt 4.020954 0.731597
vt 4.020955 0.743321
vt 4.030579 0.758463
vt 4.030576 0.728666
vt 3.465661 3.090362
vt 3.495459 3.090362
vt -2.027183 0.733699
vt 4.035609 0.733699
vt -2.027183 0.728666
vt 4.035610 0.758463
vt 4.035606 0.728666
vt 3.519395 3.251624
vt 4.191838 0.704730
vt 4.192064 0.567694
vt 3.656657 3.251624
vt 4.196807 0.572439
vt -2.080916 0.572439
vt 4.197035 0.572666
vt -2.080184 0.567468
vt 4.196807 0.705463
vt 4.197035 0.567695
vt 3.438795 3.251624
vt 4.192066 0.567695
vt 4.191839 0.785330
vt 3.656657 3.251624
vt 4.196807 0.572439
vt 4.197034 0.572666
vt -2.000316 0.572439
vt 4.197035 0.567695
vt -2.001049 0.567468
vt 4.196809 0.784597
vt 4.191838 0.785330
vt 4.192589 3.915181
vt 0.308114 3.251624
vt 3.438795 3.251624
vt 4.196808 3.911039
vt -2.000317 3.911040
vt 4.197404 3.910392
vt 4.196810 0.784598
vt -2.001050 3.916012
vt 4.197560 3.915181
vt 4.197404 3.915365
vt 4.196808 3.911039
vt -2.080916 3.911039
vt 4.197397 3.910387
vt 4.191838 0.704730
vt 4.192578 3.915173
vt 0.308114 3.251624
vt 3.519395 3.251624
vt 4.196810 0.705463
vt -2.080184 3.916011
vt 4.197394 3.915358
vt 4.197551 3.915174
vt 4.030578 3.754812
vt 4.030578 0.758463
vt 3.465661 3.090362
vt 0.469313 3.090363
vt 4.035607 3.749779
vt -2.027183 3.749779
vt 4.035609 3.754813
vt -2.027183 3.754812
vt 4.035610 0.758463
vt 4.015919 3.740156
vt 4.015918 0.731597
vt 0.483968 3.075705
vt 4.020953 3.735120
vt -2.054050 3.735121
vt 4.020955 3.740157
vt -2.054050 3.740157
vt 4.020954 0.731597
vt 4.015916 0.704730
vt 4.016138 3.739934
vt 0.483968 3.075700
vt 4.020954 3.735116
vt -2.080916 3.735116
vt 4.021177 3.734894
vt -2.080184 3.740157
vt 4.020954 0.705463
vt 4.021177 3.739934
vt 4.016138 3.739933
vt 4.015915 0.785330
vt 0.483968 3.075701
vt 4.020955 3.735116
vt 4.021177 3.734894
vt -2.000317 3.735116
vt 4.021178 3.739935
vt -2.001049 3.740157
vt 4.020955 0.784597
vt 4.030780 3.754588
vt 0.469313 3.090343
vt 4.035607 3.749759
vt 4.035806 3.749567
vt 4.035830 3.754588
vt 4.030779 3.754588
vt 0.469313 3.090343
vt 4.035607 3.749759
vt 4.035831 3.749537
vt 4.035830 3.754589
vt 4.035608 3.749779
vt -2.054050 3.749779
vt 4.030578 3.754812
vt 4.030579 0.731597
vt 3.492528 3.090362
vt 0.469313 3.090362
vt 4.035607 3.754811
vt -2.054050 3.754812
vt 4.035610 0.731597
vt 4.020953 3.735120
vt -2.027183 3.735120
vt 4.015920 3.740156
vt 4.015919 0.758463
vt 0.483968 3.075705
vt 4.020956 3.740157
vt -2.027183 3.740157
vt 4.020955 0.758463
vt 4.035607 0.733718
vt 4.035831 0.733942
vt 4.030781 0.728890
vt 3.495459 3.090343
vt 4.035833 0.728890
vt 4.035607 0.733718
vt 4.035830 0.733940
vt 4.030779 0.728888
vt 3.495459 3.090343
vt 4.035831 0.728888
vt -2.054050 0.733699
vt 4.035608 0.733699
vt 4.030578 0.731597
vt 4.030577 0.728666
vt 3.495459 3.090362
vt 3.492528 3.090362
vt -2.054050 0.728666
vt 4.035610 0.731597
vt 4.035610 0.728666
vt -2.027184 0.748357
vt 4.020954 0.748357
vt 4.015919 0.758463
vt 4.015919 0.743321
vt 3.480803 3.075704
vt -2.027183 0.743321
vt 4.020954 0.758463
vt 4.020953 0.743321
vt 0.817565 0.747747
vt 0.817788 0.747524
vt 0.867694 0.747747
vt 0.822835 0.742478
vt 0.822612 0.784759
vt 3.180855 0.186049
vt 0.817789 0.742478
vt 0.866960 0.742700
vt 0.817565 0.784026
vt 0.817566 0.747747
vt 0.786998 0.747747
vt 0.817789 0.747524
vt 0.822612 0.704064
vt 0.822835 0.742478
vt 3.180855 0.186050
vt 0.787732 0.742701
vt 0.817566 0.704798
vt 0.817789 0.742478
vt 0.822608 0.730962
vt 0.822607 0.742700
vt 3.180855 0.186046
vt 0.813897 0.747743
vt 0.817566 0.747743
vt 0.813897 0.742701
vt 0.817565 0.730962
vt 0.817565 0.742701
vt 0.807932 0.757861
vt 0.807932 0.728028
vt 3.165694 0.171370
vt 3.195527 0.171370
vt 0.840795 0.733067
vt 0.802894 0.733067
vt 0.840795 0.728028
vt 0.802893 0.757861
vt 0.802894 0.728029
vt 3.219491 0.009919
vt 0.646480 0.704064
vt 0.646707 0.566412
vt 3.356915 0.009919
vt 0.641504 0.571617
vt 0.786998 0.571617
vt 0.641732 0.571390
vt 0.787732 0.566640
vt 0.641503 0.704798
vt 0.641730 0.566413
vt 3.138796 0.009919
vt 0.646707 0.566413
vt 0.646480 0.784759
vt 3.356915 0.009919
vt 0.641504 0.571617
vt 0.641731 0.571390
vt 0.867693 0.571617
vt 0.641731 0.566413
vt 0.866960 0.566640
vt 0.641503 0.784026
vt 0.646481 0.784759
vt 0.646708 3.919358
vt 3.138796 0.009919
vt 0.004424 0.009919
vt 0.641504 3.914155
vt 0.867693 3.914154
vt 0.641731 3.914382
vt 0.641505 0.784025
vt 0.866960 3.919131
vt 0.641731 3.919358
vt 0.641504 3.914155
vt 0.786998 3.914154
vt 0.641732 3.914382
vt 0.646481 0.704064
vt 0.646709 3.919358
vt 3.219492 0.009919
vt 0.004424 0.009919
vt 0.641505 0.704798
vt 0.787732 3.919131
vt 0.641732 3.919358
vt 0.807932 3.757743
vt 0.807932 0.757861
vt 3.165694 0.171370
vt 0.165813 0.171371
vt 0.802894 3.752703
vt 0.840795 3.752704
vt 0.802893 3.757744
vt 0.840795 3.757744
vt 0.802893 0.757861
vt 0.822607 3.743071
vt 0.822607 0.730962
vt 0.180484 0.186046
vt 0.817566 3.738028
vt 0.813897 3.738028
vt 0.817566 3.743070
vt 0.813897 3.743071
vt 0.817565 0.730962
vt 0.822612 0.704064
vt 0.822835 3.743294
vt 0.180484 0.186050
vt 0.817566 3.738024
vt 0.786998 3.738024
vt 0.817788 3.738245
vt 0.787732 3.743071
vt 0.817565 0.704798
vt 0.817788 3.743292
vt 0.822835 3.743293
vt 0.822612 0.784759
vt 0.180484 0.186050
vt 0.817565 3.738024
vt 0.817788 3.738246
vt 0.867694 3.738024
vt 0.817788 3.743292
vt 0.866960 3.743071
vt 0.817565 0.784026
vt 0.808175 3.757967
vt 0.165813 0.171390
vt 0.802894 3.752684
vt 0.803118 3.752908
vt 0.803117 3.757966
vt 0.808175 3.757965
vt 0.165813 0.171390
vt 0.802894 3.752684
vt 0.803116 3.752906
vt 0.803116 3.757965
vt 0.802894 3.752703
vt 0.813897 3.752704
vt 0.807932 3.757743
vt 0.807932 0.730962
vt 3.192593 0.171370
vt 0.165813 0.171371
vt 0.802894 3.757742
vt 0.813897 3.757744
vt 0.802893 0.730963
vt 0.817566 3.738028
vt 0.840795 3.738028
vt 0.822607 3.743071
vt 0.822607 0.757861
vt 0.180484 0.186046
vt 0.817565 3.743072
vt 0.840795 3.743071
vt 0.817565 0.757861
vt 0.802894 0.733087
vt 0.803118 0.732863
vt 0.808176 0.727805
vt 3.195527 0.171390
vt 0.803118 0.727804
vt 0.802894 0.733087
vt 0.803116 0.732864
vt 0.808175 0.727806
vt 3.195527 0.171390
vt 0.803116 0.727806
vt 0.813897 0.733067
vt 0.802894 0.733067
vt 0.807932 0.730962
vt 0.807932 0.728028
vt 3.195527 0.171370
vt 3.192593 0.171370
vt 0.813897 0.728028
vt 0.802893 0.730962
vt 0.802893 0.728028
vt 0.840795 0.747743
vt 0.817566 0.747743
vt 0.822608 0.757861
vt 0.822607 0.742701
vt 3.180855 0.186046
vt 0.840795 0.742701
vt 0.817565 0.757861
vt 0.817566 0.742701
vt 3.465661 3.075699
vt 3.495459 3.075699
vt 3.195527 0.186050
vt 3.165694 0.186049
vt 3.195527 0.186049
vt 3.495459 3.075700
vt 3.495458 3.075699
vt 3.219491 0.186049
vt 3.356915 0.186049
vt 3.138796 0.186049
vt 3.356915 0.186049
vt 3.519395 3.075699
vt 3.656657 3.075699
vt 0.358604 -0.605855
vt 0.436194 -0.605855
vt 0.358604 -0.977691
vt 0.436194 -0.977691
vt 3.195527 0.186049
vt 3.438795 3.075699
vt 3.656657 3.075699
vt 0.358604 -0.977690
vt 0.226060 -0.977690
vt 0.358604 -0.605855
vt 0.226060 -0.605855
vt 0.435598 -0.977690
vt 0.435598 -0.605856
vt 3.195527 0.186050
vt 3.192593 0.186050
vt 0.435002 -0.605855
vt 0.226060 -0.605855
vt 0.435002 -0.977691
vt 0.226060 -0.977691
vt 3.495459 3.075699
vt 3.492528 3.075699
vt 3.492528 3.075700
vt 0.469313 3.075700
vt 0.308114 3.075699
vt 3.438795 3.075699
vt 0.308114 3.075700
vt 3.519395 3.075700
vt 0.469313 3.075700
vt 3.465661 3.075700
vt 0.469313 3.075700
vt 0.469313 3.075700
vt 3.138796 0.186050
vt 0.004424 0.186050
vt 3.219492 0.186050
vt 0.004424 0.186051
vt 3.165694 0.186050
vt 0.165813 0.186050
vt 0.165813 0.186050
vt 3.192593 0.186051
vt 0.165813 0.186051
vt 0.165813 0.186050
vt 3.728117 3.337668
vt 3.095766 3.337667
vt 3.728118 3.337667
vt 5.256826 1.473214
vt 3.095766 3.337668
vt 3.044607 3.337667
vt 3.646758 3.337668
vt 3.148157 3.337668
vt 4.932559 1.729003
vt 3.809479 3.337667
vt 3.044607 3.337667
vt 3.148157 3.337668
vt 3.809479 3.337668
vt 3.044607 3.049732
vt 3.646758 3.049733
vt 3.148157 3.049733
vt 3.809479 3.049732
vt 3.095766 3.049733
vt 3.728118 3.049732
vt 5.126994 1.343382
vt 3.728117 3.049733
vt 3.095766 3.049732
vt 3.148157 3.049732
vt 4.781245 1.577689
vt 3.809479 3.049732
vt 3.044607 3.049732
s 0
usemtl M_Aluminium_Black
f 22/68/1 20/61/1 17/52/1 14/41/1
f 41/120/2 35/107/2 1/1/2 52/145/2
f 26/83/3 43/124/3 55/150/3 11/31/3
f 43/123/2 29/90/2 8/23/2 55/151/2
f 32/98/4 38/115/4 49/140/4 4/10/4
f 38/115/4 22/67/4 14/40/4 49/140/4
f 16/46/5 132/349/5 128/342/5 13/36/5
f 20/60/2 41/120/2 52/145/2 17/50/2
f 35/109/3 46/133/3 58/159/3 1/3/3
f 29/91/3 32/99/3 4/11/3 8/22/3
f 46/132/4 26/82/4 11/32/4 58/160/4
f 8/22/3 4/11/3 6/16/3 9/24/3
f 9/25/6 6/17/6 5/13/6 7/19/6
f 11/31/3 55/150/3 57/156/3 12/33/3
f 12/34/6 57/157/6 56/152/6 10/27/6
f 21/63/6 24/74/6 23/70/6 19/56/6
f 17/51/7 52/146/7 54/149/7 18/53/7
f 18/53/8 54/149/8 53/147/8 16/47/8
f 14/41/1 17/52/1 18/54/1 15/43/1
f 15/44/5 18/55/5 16/48/5 13/37/5
f 55/151/2 8/23/2 9/26/2 57/158/2
f 57/158/2 9/26/2 7/20/2 56/153/2
f 20/61/1 22/68/1 24/75/1 21/64/1
f 52/146/9 1/2/9 3/7/9 54/149/9
f 54/149/10 3/7/10 2/4/10 53/147/10
f 50/142/11 5/14/11 6/18/11 51/144/11
f 51/144/12 6/18/12 4/12/12 49/141/12
f 1/3/3 58/159/3 60/164/3 3/8/3
f 3/9/6 60/165/6 59/161/6 2/5/6
f 10/28/4 59/162/4 60/166/4 12/35/4
f 12/35/4 60/166/4 58/160/4 11/32/4
f 44/125/2 28/87/2 30/92/2 45/129/2
f 45/129/2 30/92/2 29/90/2 43/123/2
f 19/57/13 40/118/13 42/122/13 21/65/13
f 21/66/14 42/122/14 41/121/14 20/62/14
f 26/82/4 46/132/4 48/137/4 27/84/4
f 27/84/4 48/137/4 47/134/4 25/78/4
f 40/118/15 34/104/15 36/110/15 42/122/15
f 42/122/16 36/110/16 35/108/16 41/121/16
f 46/133/3 35/109/3 36/111/3 48/138/3
f 48/139/5 36/112/5 34/105/5 47/135/5
f 43/124/3 26/83/3 27/85/3 45/130/3
f 45/131/17 27/86/17 25/79/17 44/126/17
f 32/99/3 29/91/3 30/93/3 33/101/3
f 33/102/18 30/94/18 28/88/18 31/95/18
f 38/116/19 32/100/19 33/103/19 39/117/19
f 39/117/20 33/103/20 31/96/20 37/113/20
f 22/69/21 38/116/21 39/117/21 24/76/21
f 24/77/22 39/117/22 37/113/22 23/71/22
f 49/141/23 14/42/23 15/45/23 51/144/23
f 51/144/24 15/45/24 13/38/24 50/142/24
f 82/233/3 74/207/3 77/218/3 80/227/3
f 101/284/2 112/309/2 61/167/2 95/271/2
f 86/247/1 71/197/1 115/314/1 103/288/1
f 103/287/2 115/315/2 68/189/2 89/254/2
f 92/262/4 64/176/4 109/304/4 98/279/4
f 98/279/4 109/304/4 74/206/4 82/232/4
f 76/212/5 73/202/5 126/338/5 127/340/5
f 80/226/2 77/216/2 112/309/2 101/284/2
f 95/273/1 61/169/1 118/323/1 106/297/1
f 89/255/1 68/188/1 64/177/1 92/263/1
f 106/296/4 118/324/4 71/198/4 86/246/4
f 68/188/1 69/190/1 66/182/1 64/177/1
f 69/191/6 67/185/6 65/179/6 66/183/6
f 71/197/1 72/199/1 117/320/1 115/314/1
f 72/200/6 70/193/6 116/316/6 117/321/6
f 81/229/25 79/222/25 83/235/25 84/239/25
f 77/217/13 78/219/13 114/313/13 112/310/13
f 78/219/14 76/213/14 113/311/14 114/313/14
f 74/207/3 75/209/3 78/220/3 77/218/3
f 75/210/5 73/203/5 76/214/5 78/221/5
f 115/315/2 117/322/2 69/192/2 68/189/2
f 117/322/2 116/317/2 67/186/2 69/192/2
f 80/227/3 81/230/3 84/240/3 82/233/3
f 112/310/15 114/313/15 63/173/15 61/168/15
f 114/313/16 113/311/16 62/170/16 63/173/16
f 110/306/19 111/308/19 66/184/19 65/180/19
f 111/308/20 109/305/20 64/178/20 66/184/20
f 61/169/1 63/174/1 120/328/1 118/323/1
f 63/175/6 62/171/6 119/325/6 120/329/6
f 70/194/4 72/201/4 120/330/4 119/326/4
f 72/201/4 71/198/4 118/324/4 120/330/4
f 104/289/2 105/293/2 90/256/2 88/251/2
f 105/293/2 103/287/2 89/254/2 90/256/2
f 79/223/7 81/231/7 102/286/7 100/282/7
f 81/231/8 80/228/8 101/285/8 102/286/8
f 86/246/4 87/248/4 108/301/4 106/296/4
f 87/248/4 85/242/4 107/298/4 108/301/4
f 100/282/9 102/286/9 96/274/9 94/268/9
f 102/286/10 101/285/10 95/272/10 96/274/10
f 106/297/1 108/302/1 96/275/1 95/273/1
f 108/303/5 107/299/5 94/269/5 96/276/5
f 103/288/1 105/294/1 87/249/1 86/247/1
f 105/295/26 104/290/26 85/243/26 87/250/26
f 92/263/1 93/265/1 90/257/1 89/255/1
f 93/266/5 91/259/5 88/252/5 90/258/5
f 98/280/11 99/281/11 93/267/11 92/264/11
f 99/281/12 97/277/12 91/260/12 93/267/12
f 82/234/24 84/241/24 99/281/24 98/280/24
f 84/241/23 83/236/23 97/277/23 99/281/23
f 109/305/22 111/308/22 75/211/22 74/208/22
f 111/308/21 110/306/21 73/204/21 75/211/21
f 131/348/4 110/307/4 65/181/4
f 126/339/4 73/205/4 110/307/4 131/348/4
f 67/187/2 116/318/2 137/357/2
f 139/361/2 138/359/2 134/353/2 133/351/2
f 140/363/2 56/154/2 7/21/2
f 135/355/5 136/356/5 138/360/5 139/362/5
f 5/15/4 50/143/4 125/337/4
f 137/358/6 116/319/6 70/195/6 123/334/6
f 132/350/2 16/49/2 53/148/2 124/336/2
f 123/335/4 70/196/4 119/327/4
f 122/333/2 113/312/2 76/215/2 127/341/2
f 124/336/2 53/148/2 2/6/2
f 125/337/4 50/143/4 13/39/4 128/343/4
f 62/172/2 113/312/2 122/333/2
f 121/331/6 10/29/6 56/155/6 140/364/6
f 59/163/4 10/30/4 121/332/4
f 136/356/4 135/355/4 130/346/4 129/344/4
f 129/345/6 130/347/6 133/352/6 134/354/6
f 146/374/2 40/119/2 19/58/2 142/367/2
f 141/365/5 44/127/5 25/80/5 145/372/5
f 144/371/4 37/114/4 31/97/4
f 145/373/4 25/81/4 47/136/4
f 143/369/4 23/72/4 37/114/4 144/371/4
f 142/368/6 19/59/6 23/73/6 143/370/6
f 34/106/2 40/119/2 146/374/2
f 28/89/2 44/128/2 141/366/2
f 149/379/5 85/244/5 104/291/5 151/382/5
f 148/377/6 83/237/6 79/224/6 147/375/6
f 91/261/4 97/278/4 152/384/4
f 107/300/4 85/245/4 149/380/4
f 151/383/2 104/292/2 88/253/2
f 150/381/2 100/283/2 94/270/2
f 147/376/2 79/225/2 100/283/2 150/381/2
f 152/384/4 97/278/4 83/238/4 148/378/4
f 163/402/2 156/389/2 157/390/2 161/398/2
f 166/406/4 154/386/4 160/396/4 162/400/4
f 165/405/6 153/385/6 159/394/6 168/409/6
f 168/410/4 159/395/4 154/386/4 166/406/4
f 167/407/2 158/392/2 156/389/2 163/402/2
f 162/401/5 160/397/5 155/387/5 164/403/5
f 161/399/6 157/391/6 153/385/6 165/405/6
f 158/393/5 167/408/5 164/404/5 155/388/5
