# Blender 3.1.0
# www.blender.org
o SM_Door1_Plastic_Jamb-01
v 0.058999 0.030000 0.040000
v -0.000000 0.030000 -0.000000
v 0.041307 0.030000 0.040000
v 0.058999 0.030000 0.110000
v 0.041307 0.030000 -0.000000
v 0.058999 0.030000 -0.000000
v -0.000000 0.030000 0.040000
v -0.000000 0.030000 0.110000
v 0.058999 0.030000 0.075000
v 0.000000 0.030000 0.075000
v 0.041307 0.030000 0.075000
v 0.041307 0.030000 0.110000
v 0.044742 2.358692 0.040000
v 0.041307 2.355258 0.040000
v 0.041307 2.358692 0.040000
v 0.003392 2.400000 0.000000
v -0.000000 2.396608 0.000000
v 0.000000 2.400000 0.000500
v 0.044742 2.358692 0.075000
v 0.041307 2.355258 0.075000
v 0.041307 2.358692 0.075000
v 0.041307 2.355245 0.000000
v 0.044755 2.358692 0.000000
v 0.041307 2.358692 0.000500
v 0.058999 2.337563 0.040000
v 0.062436 2.341000 0.040000
v 0.058999 2.341000 0.040000
v 0.058999 2.337563 0.075000
v 0.062436 2.341000 0.075000
v 0.058999 2.341000 0.075000
v 0.058999 2.337561 0.000000
v 0.062439 2.341000 0.000000
v 0.058999 2.341000 0.000500
v 0.062439 2.341000 0.110000
v 0.058999 2.337561 0.110000
v 0.058999 2.341000 0.109500
v 0.003392 2.400000 0.110000
v -0.000000 2.396608 0.110000
v -0.000000 2.400000 0.109500
v 0.041307 2.355245 0.110000
v 0.044755 2.358692 0.110000
v 0.041307 2.358692 0.109500
v 0.003363 2.400000 0.075000
v 0.000000 2.396636 0.075000
v 0.000000 2.400000 0.075000
v -0.000000 2.396636 0.040000
v 0.003363 2.400000 0.040000
v -0.000000 2.400000 0.040000
v 0.062438 2.400000 0.110000
v 0.062438 2.400000 0.000000
v 0.062438 2.400000 0.075000
v 0.062438 2.400000 0.040000
v 0.062438 2.358692 0.075000
v 0.062439 2.358692 0.000000
v 0.062439 2.358692 0.110000
v 0.062438 2.358692 0.040000
vn -1.0000 -0.0000 -0.0000
vn -0.0000 -0.0000 1.0000
vn -0.0000 -0.0000 -1.0000
vn 1.0000 -0.0000 -0.0000
vn -0.1422 -0.1422 0.9796
vn 0.1422 0.1422 0.9796
vn 0.1433 0.1432 -0.9793
vn -0.1432 -0.1433 -0.9793
vn 0.1422 0.1422 -0.9796
vn -0.1422 -0.1422 -0.9796
vn -0.0000 1.0000 -0.0000
vn -0.0000 -1.0000 -0.0000
vn -0.1432 -0.1433 0.9793
vn 0.1433 0.1432 0.9793
vt 2.561175 0.002399
vt 0.098419 0.002399
vt 2.501822 0.002399
vt 0.010875 0.002399
vt 2.561175 0.002399
vt 0.072167 0.002399
vt 0.098419 0.002399
vt 2.665041 0.002399
vt 0.072167 0.002399
vt 2.501822 0.002399
vt 0.098419 0.002399
vt 2.561175 0.002399
vt 0.010875 0.002399
vt 2.665041 0.002399
vt 0.098419 0.002399
vt 2.613108 0.002399
vt 2.613108 0.002399
vt 0.072167 0.002399
vt 2.613108 0.002399
vt 0.072167 0.002399
vt 0.077263 2.948569
vt 0.077263 3.457739
vt 2.561175 0.331880
vt 3.070344 0.331880
vt 2.561175 3.452643
vt 0.072167 3.452643
vt 2.561175 3.457739
vt 0.072167 2.948569
vt 0.072167 3.457739
vt 0.015908 3.519031
vt 0.015908 2.889217
vt 2.501822 0.393235
vt 3.131637 0.393235
vt 0.010875 3.513998
vt 2.501822 3.513998
vt 0.010875 3.519031
vt 0.010875 2.889958
vt 2.502564 3.519031
vt 0.077263 3.457739
vt 0.077263 3.000503
vt 2.613108 0.331880
vt 3.070344 0.331880
vt 0.072167 3.452643
vt 2.613108 3.452643
vt 0.072167 3.457739
vt 2.613108 3.457739
vt 0.072167 3.000503
vt 0.072167 3.452623
vt 0.077283 3.457739
vt 3.070344 0.331861
vt 0.072167 3.457739
vt 2.561175 3.426387
vt 0.098419 3.426387
vt 0.103519 2.948569
vt 0.103519 3.431487
vt 3.044092 0.305625
vt 2.561175 3.431487
vt 0.098419 2.948569
vt 0.098419 3.431487
vt 0.098419 3.426387
vt 2.613108 3.426387
vt 0.103519 3.431487
vt 0.103519 3.000503
vt 3.044092 0.305625
vt 0.098419 3.431487
vt 2.613108 3.431487
vt 0.098419 3.000503
vt 0.098419 3.426383
vt 2.501822 3.426383
vt 0.103522 3.431487
vt 0.103522 2.889217
vt 3.044092 0.305621
vt 0.098419 3.431487
vt 2.502564 3.431487
vt 0.098419 2.889958
vt 0.103522 3.431487
vt 0.103522 3.052436
vt 3.044092 0.305621
vt 0.098419 3.426383
vt 2.665041 3.426383
vt 0.098419 3.431487
vt 2.664299 3.431487
vt 0.098419 3.051694
vt 0.015908 3.052435
vt 0.015908 3.519031
vt 2.665041 0.393236
vt 3.131637 0.393236
vt 2.665041 3.513998
vt 0.010875 3.513998
vt 2.664299 3.519031
vt 0.010875 3.051694
vt 0.010875 3.519031
vt 0.072167 3.452623
vt 0.077283 3.457739
vt 3.070344 0.331861
vt 0.072167 3.457739
vt 0.015865 3.000503
vt 2.613108 0.393278
vt 2.613108 3.514041
vt 2.613108 3.519031
vt 0.010875 3.000503
vt 2.561175 3.514041
vt 0.015865 2.948569
vt 2.561175 0.393278
vt 0.010875 2.948569
vt 2.561175 3.519031
vt 2.665041 0.305622
vt 3.131637 0.305622
vt 2.501822 0.305621
vt 3.131637 0.305621
vt 2.613108 0.305621
vt 2.561175 0.305621
vt 2.613108 0.305622
vt 3.070344 0.305622
vt 3.070344 0.305621
vt 3.070344 0.305621
vt 2.561175 0.305621
vt 3.070344 0.305621
s 0
f 46/102/1 17/35/1 2/3/1 7/12/1
f 40/93/2 38/89/2 8/13/2 12/20/2
f 20/43/3 28/60/3 9/15/3 11/18/3
f 31/69/4 25/52/4 1/1/4 6/10/4
f 44/99/1 46/102/1 7/12/1 10/17/1
f 38/88/1 44/99/1 10/17/1 8/14/1
f 14/25/4 20/44/4 11/19/4 3/5/4
f 17/34/3 22/48/3 5/9/3 2/4/3
f 35/79/2 40/93/2 12/20/2 4/7/2
f 28/61/4 35/80/4 4/8/4 9/16/4
f 25/53/2 14/26/2 3/6/2 1/2/2
f 22/48/3 31/68/3 6/11/3 5/9/3
f 41/94/5 42/96/5 36/81/5 34/76/5
f 42/96/6 40/93/6 35/79/6 36/81/6
f 17/34/7 18/36/7 24/51/7 22/48/7
f 18/36/8 16/30/8 23/49/8 24/51/8
f 22/48/9 24/51/9 33/73/9 31/68/9
f 24/51/10 23/49/10 32/70/10 33/73/10
f 47/103/11 48/105/11 45/101/11 43/97/11
f 48/106/1 46/102/1 44/99/1 45/100/1
f 20/43/3 21/45/3 30/65/3 28/60/3
f 21/45/3 19/39/3 29/62/3 30/65/3
f 31/69/4 33/74/4 27/57/4 25/52/4
f 33/75/12 32/71/12 26/54/12 27/58/12
f 16/31/11 18/37/11 48/105/11 47/103/11
f 18/38/1 17/35/1 46/102/1 48/106/1
f 28/61/4 30/66/4 36/82/4 35/80/4
f 30/67/12 29/63/12 34/77/12 36/83/12
f 38/88/1 39/90/1 45/100/1 44/99/1
f 39/91/11 37/84/11 43/97/11 45/101/11
f 14/25/4 15/27/4 21/46/4 20/44/4
f 15/28/12 13/21/12 19/40/12 21/47/12
f 13/22/2 15/29/2 27/59/2 26/55/2
f 15/29/2 14/26/2 25/53/2 27/59/2
f 37/85/13 39/92/13 42/96/13 41/94/13
f 39/92/14 38/89/14 40/93/14 42/96/14
f 52/112/11 47/104/11 43/98/11 51/111/11
f 53/113/12 19/41/12 13/23/12 56/117/12
f 56/118/2 13/24/2 26/56/2
f 51/111/11 43/98/11 37/86/11 49/107/11
f 29/64/3 19/42/3 53/114/3
f 50/109/11 16/32/11 47/104/11 52/112/11
f 55/116/2 41/95/2 34/78/2
f 54/115/3 23/50/3 16/33/3 50/110/3
f 32/72/3 23/50/3 54/115/3
f 49/108/2 37/87/2 41/95/2 55/116/2
