# Blender 3.1.0
# www.blender.org
o section_door_single_plastic_rail2
v 1.000000 0.030000 0.040000
v 1.000000 0.012308 0.039295
v 1.000000 0.012308 0.000000
v 1.000000 0.030000 0.000000
v 1.000000 -0.000000 0.110000
v 1.000000 -0.000000 0.075000
v 1.000000 0.012308 0.075000
v 1.000000 0.012308 0.110000
v 1.000000 0.000000 0.000000
v 1.000000 -0.000000 0.039295
v 1.000000 0.030000 0.075000
v 1.000000 0.030000 0.110000
v 0.000000 0.012308 0.000000
v 0.000000 0.030000 0.000000
v 0.000000 -0.000000 0.075000
v 0.000000 -0.000000 0.039295
v 0.000000 0.000000 0.000000
v 0.000000 0.012308 0.075000
v 0.000000 0.030000 0.075000
v 0.000000 0.012308 0.040000
v 0.000000 0.030000 0.040000
v 0.000000 0.030000 0.110000
v 0.000000 -0.000000 0.110000
v 0.000000 0.012308 0.110000
v 0.999999 2.341000 0.110000
v 0.000000 2.341000 0.110000
v -0.000003 2.341000 0.075000
v 1.000002 2.341000 0.075000
v 1.000002 2.341000 0.040000
v -0.000003 2.341000 0.040000
v 0.000000 2.341000 0.000000
v 1.000000 2.341000 0.000000
v -0.000001 2.358693 0.075000
v 1.000000 2.358693 0.075000
v 0.000000 2.358693 0.000000
v 1.000000 2.358693 0.000000
v 1.000000 2.400000 0.040000
v 0.000000 2.400000 0.040000
v 0.000000 2.400000 0.075000
v 1.000000 2.400000 0.075000
v 0.000000 2.358693 0.040000
v 1.000000 2.358693 0.040000
v 0.000000 2.400000 0.110000
v 1.000000 2.400000 0.110000
v 1.000000 2.400000 0.000000
v 0.000000 2.400000 0.000000
v 1.000000 2.358693 0.110000
v 0.000000 2.358693 0.110000
vn 1.0000 -0.0000 -0.0000
vn -0.0000 -0.0000 -1.0000
vn -0.0000 -1.0000 -0.0000
vn 0.5640 0.5639 -0.6033
vn 0.1213 -0.3817 -0.9163
vn 0.5670 0.5977 0.5668
vn 0.5639 0.6033 -0.5640
vn -0.0000 1.0000 -0.0000
vn 0.1215 -0.4027 0.9072
vn 0.5697 0.5574 0.6039
vn 0.0004 -0.0199 0.9998
vn 0.3869 0.9140 -0.1220
vn 0.3817 0.9163 0.1213
vn -0.0000 -0.0000 1.0000
vn -0.5977 0.5670 -0.5668
vn -0.9140 -0.1220 -0.3869
vn -1.0000 -0.0000 -0.0000
vn -0.6033 0.5640 0.5639
vn -0.9163 -0.1213 0.3817
vn -0.6033 -0.5639 0.5640
vn -0.5977 -0.5830 0.5504
vn -0.6033 -0.5640 -0.5639
vn -0.5977 -0.5504 -0.5830
vt 0.891643 -1.407572
vt 0.976299 -1.260835
vt -0.708820 0.206528
vt 0.865681 -1.406538
vt 0.223999 -1.260836
vt 0.950323 -1.260835
vt 0.865681 -1.348878
vt 0.153540 0.206529
vt 0.891643 -1.348878
vt 0.127579 0.206529
vt -0.650125 0.206528
vt 0.847622 -1.510288
vt -0.327305 0.206528
vt 0.061546 0.206528
vt 0.847622 -1.458930
vt -0.378662 0.206528
vt 0.865681 -1.458930
vt 0.976300 0.793472
vt 0.171601 -1.260836
vt 0.865681 -1.510288
vt 0.079606 0.206529
vt 0.847622 -1.348878
vt -0.488715 0.206528
vt 0.171600 0.206528
vt 0.847622 -1.406538
vt -0.431055 0.206528
vt 0.891642 -1.458930
vt 1.002261 0.793471
vt -0.760178 0.206528
vt 0.891642 -1.510288
vt -0.811535 0.206528
vt 0.105567 0.206528
vt 0.153540 -1.260834
vt 0.153540 -1.319529
vt 0.127579 -1.260834
vt -0.650125 -1.260835
vt 0.127579 -1.319529
vt -0.378662 -1.260835
vt -0.378662 -1.319530
vt -0.431055 -1.260835
vt -0.431055 -1.319530
vt -0.488715 -1.260835
vt 0.171600 -1.260835
vt 0.171600 -1.319529
vt 0.976300 2.260835
vt 0.171601 -2.728199
vt 0.976300 2.319530
vt 1.002261 2.260834
vt -0.760178 -1.260835
vt -0.760178 -1.319530
vt 0.222967 -2.728199
vt 0.950338 -2.728198
vt 0.222967 -2.786893
vt 0.950338 -2.786893
vt 0.976299 -2.728198
vt -0.708820 -1.260835
vt -0.708820 -1.319530
vt -0.811535 -1.260835
vt 0.105567 -1.260835
vt 0.105567 -1.319530
vt -0.327305 -1.260835
vt 0.061546 -1.260835
vt -0.327305 -1.319530
vt 0.079606 -1.260834
vt 0.079606 -1.319529
vt 2.665041 -1.178188
vt 3.044092 -1.178188
vt 2.665041 0.305621
vt 3.044092 0.305621
vt 2.613108 0.305625
vt 3.044092 0.305625
vt 2.613108 -1.178193
vt 3.044092 -1.178193
vt 2.561175 -1.178193
vt 3.044092 -1.178193
vt 2.561175 0.305625
vt 3.044092 0.305625
vt 2.501822 0.305621
vt 3.044092 0.305621
vt 2.501822 -1.178190
vt 3.044092 -1.178190
vt 3.070344 0.305622
vt 2.613108 0.305622
vt 3.070344 -1.178190
vt 2.613108 -1.178190
vt 3.070344 0.305621
vt 3.070344 -1.178190
vt 2.561175 -1.178190
vt 2.561175 0.305621
vt 2.613108 0.305621
vt 2.613108 -1.178190
vt 2.561175 0.305621
vt 3.070344 0.305621
vt 2.561175 -1.178190
vt 3.070344 -1.178190
vt 2.665041 0.305622
vt 3.131637 0.305622
vt 2.665041 -1.178189
vt 3.131637 -1.178189
vt 2.501822 -1.178190
vt 3.131637 -1.178190
vt 2.501822 0.305621
vt 3.131637 0.305621
vt 3.070344 -1.178190
vt 3.070344 0.305621
s 0
f 1/1/1 2/4/1 3/7/1 4/9/1
f 5/12/1 6/15/1 7/17/1 8/20/1
f 9/22/1 3/7/1 2/4/1 10/25/1
f 2/4/1 7/17/1 6/15/1 10/25/1
f 7/17/1 11/27/1 12/30/1 8/20/1
f 13/33/2 14/35/2 4/10/2 3/8/2
f 15/38/3 16/40/3 10/26/3 6/16/3
f 16/40/3 17/42/3 9/23/3 10/26/3
f 17/43/2 13/33/2 3/8/2 9/24/2
f 18/45/4 19/48/5 11/28/2 7/18/2
f 20/51/6 18/46/7 7/19/8 2/5/8
f 21/55/9 20/52/10 2/6/11 1/2/11
f 14/36/8 21/56/12 1/3/8 4/11/8
f 19/49/13 22/58/8 12/31/8 11/29/8
f 23/61/3 15/38/3 6/16/3 5/13/3
f 24/64/14 23/62/14 5/14/14 8/21/14
f 22/59/14 24/64/14 8/21/14 12/32/14
f 20/54/15 21/57/16 14/37/17 13/34/17
f 18/47/18 24/65/17 22/60/17 19/50/19
f 24/65/17 18/47/20 15/39/17 23/63/17
f 20/53/21 16/41/17 15/39/17 18/47/22
f 17/44/17 16/41/17 20/54/23 13/34/17
f 25/66/3 26/68/3 27/70/3 28/72/3
f 29/74/3 30/76/3 31/78/3 32/80/3
f 28/73/2 27/71/2 33/82/2 34/84/2
f 32/81/2 31/79/2 35/86/2 36/87/2
f 37/88/8 38/89/8 39/90/8 40/91/8
f 34/85/3 33/83/3 41/92/3 42/94/3
f 42/95/14 41/93/14 30/77/14 29/75/14
f 40/91/8 39/90/8 43/96/8 44/98/8
f 45/100/8 46/102/8 38/89/8 37/88/8
f 47/104/14 48/105/14 26/69/14 25/67/14
f 36/87/2 35/86/2 46/103/2 45/101/2
f 44/99/14 43/97/14 48/105/14 47/104/14
