# Blender 3.1.0
# www.blender.org
o SM_Door1_Plastic_Impost_01
v 0.070000 0.030000 -0.000000
v -0.000000 0.030000 -0.000000
v 0.070000 0.030000 0.040000
v -0.000000 0.030000 0.040000
v 0.070000 0.030000 0.075000
v -0.000000 0.030000 0.075000
v -0.000000 0.030000 0.100000
v 0.070000 0.030000 0.100000
v 0.015000 0.030000 0.110000
v 0.054999 0.030000 0.110000
v 0.055000 0.030000 0.040000
v 0.015000 0.030000 0.040000
v 0.055000 0.030000 0.075000
v 0.015000 0.030000 0.075000
v 0.055000 0.030000 0.100000
v 0.015000 0.030000 0.100000
v -0.000000 2.341000 0.000000
v -0.000000 2.341000 0.040000
v 0.070000 2.341000 0.040000
v 0.070000 2.341000 0.000000
v 0.015000 2.341000 0.040000
v 0.070000 2.341000 0.100000
v 0.070000 2.341000 0.075000
v 0.015000 2.341000 0.075000
v -0.000000 2.341000 0.075000
v -0.000000 2.341000 0.100000
v 0.015000 2.341000 0.100000
v 0.015000 2.341000 0.110000
v 0.054999 2.341000 0.110000
v 0.055000 2.341000 0.040000
v 0.055000 2.341000 0.075000
v 0.055000 2.341000 0.100000
v 0.055000 0.030000 -0.000000
v 0.015000 0.030000 -0.000000
v 0.015000 2.341000 0.000000
v 0.055000 2.341000 0.000000
vn -1.0000 -0.0000 -0.0000
vn -0.0000 -1.0000 -0.0000
vn -0.0000 -0.0000 -1.0000
vn -0.0000 1.0000 -0.0000
vn -0.0000 -0.0000 1.0000
vn 1.0000 -0.0000 -0.0000
vt 1.835839 -0.911789
vt 2.064417 2.520584
vt 1.835839 -1.048086
vt 2.243966 2.519670
vt 1.913723 -0.911789
vt 2.004562 2.520597
vt 1.913723 -1.048086
vt 2.303821 2.519657
vt 1.981871 -0.911789
vt 1.825015 2.521630
vt 1.981871 -1.048086
vt 1.406075 2.524171
vt 2.030548 -1.048086
vt 1.465924 2.523848
vt 2.030548 -0.911789
vt 1.765166 2.521953
vt 2.050019 -1.018880
vt 1.585618 2.522907
vt 2.050019 -0.940997
vt 1.645473 2.522894
vt 1.913723 -0.940997
vt 1.944715 2.521048
vt 1.913723 -1.018879
vt 2.363668 2.519207
vt 1.981871 -0.940997
vt 1.884863 2.521180
vt 1.981871 -1.018880
vt 2.423521 2.519075
vt 1.346228 2.524621
vt 2.030548 -0.940997
vt 1.705319 2.522404
vt 2.030548 -1.018880
vt 1.525771 2.523397
vt 2.243966 -0.896116
vt 2.051796 -0.911790
vt 2.129680 -0.911790
vt 2.303821 -0.896129
vt 2.004562 -0.895190
vt 2.129680 -1.048086
vt 2.051796 -1.048086
vt 2.064417 -0.895203
vt 2.363668 -0.896579
vt 2.129679 -0.940997
vt 2.246505 -1.048086
vt 1.765166 -0.893834
vt 2.197828 -1.048086
vt 1.825015 -0.894156
vt 2.423521 -0.896711
vt 1.346228 -0.891167
vt 2.197828 -0.940997
vt 2.197828 -0.911789
vt 1.406075 -0.891617
vt 2.246505 -0.911790
vt 1.465924 -0.891939
vt 1.525771 -0.892390
vt 2.246505 -0.940997
vt 2.265976 -0.940996
vt 1.585618 -0.892880
vt 2.265976 -1.018879
vt 1.645473 -0.892893
vt 2.129679 -1.018879
vt 1.944715 -0.894740
vt 2.197828 -1.018880
vt 1.884863 -0.894607
vt 2.246505 -1.018880
vt 1.705319 -0.893384
vt 1.835839 -0.940997
vt 2.124264 2.520133
vt 1.835839 -1.018879
vt 2.184119 2.520121
vt 2.051796 -0.940997
vt 2.184119 -0.895666
vt 2.051796 -1.018880
vt 2.124264 -0.895653
s 0
f 18/37/1 17/34/1 2/4/1 4/8/1
f 1/1/2 3/5/2 11/21/2 33/67/2
f 2/3/2 34/69/2 12/23/2 4/7/2
f 5/9/2 8/15/2 15/30/2 13/25/2
f 6/11/2 14/27/2 16/32/2 7/13/2
f 9/17/2 16/32/2 15/30/2 10/19/2
f 11/21/2 13/25/2 14/27/2 12/23/2
f 11/21/2 12/23/2 34/69/2 33/67/2
f 13/25/2 15/30/2 16/32/2 14/27/2
f 17/34/3 35/72/3 34/70/3 2/4/3
f 17/35/4 18/36/4 21/43/4 35/71/4
f 21/42/5 18/37/5 4/8/5 12/24/5
f 20/41/6 19/38/6 3/6/6 1/2/6
f 19/38/5 30/62/5 11/22/5 3/6/5
f 19/39/4 20/40/4 36/73/4 30/61/4
f 36/74/3 20/41/3 1/2/3 33/68/3
f 24/48/1 21/42/1 12/24/1 14/28/1
f 21/43/4 24/50/4 31/63/4 30/61/4
f 21/43/4 30/61/4 36/73/4 35/71/4
f 22/45/5 32/66/5 15/31/5 8/16/5
f 22/44/4 23/46/4 31/63/4 32/65/4
f 23/47/6 22/45/6 8/16/6 5/10/6
f 31/64/3 23/47/3 5/10/3 13/26/3
f 25/52/3 24/49/3 14/29/3 6/12/3
f 24/50/4 25/51/4 26/53/4 27/56/4
f 24/50/4 27/56/4 32/65/4 31/63/4
f 26/54/1 25/52/1 6/12/1 7/14/1
f 27/55/5 26/54/5 7/14/5 16/33/5
f 28/58/1 27/55/1 16/33/1 9/18/1
f 27/56/4 28/57/4 29/59/4 32/65/4
f 29/60/5 28/58/5 9/18/5 10/20/5
f 32/66/6 29/60/6 10/20/6 15/31/6
f 35/72/3 36/74/3 33/68/3 34/70/3
f 30/62/6 31/64/6 13/26/6 11/22/6
