# Blender 3.1.0
# www.blender.org
o SM_Door1_Plastic_WinGlass_01
v 1.000000 0.012308 0.076215
v 1.000000 0.012308 0.038000
v 1.000000 2.358692 0.037999
v 1.000000 2.358693 0.076215
v 0.000000 2.358692 0.037999
v 0.000000 2.358693 0.076215
v 0.000000 0.012308 0.038000
v 0.000000 0.012308 0.076215
vn 1.0000 -0.0000 -0.0000
vn -0.0000 1.0000 -0.0000
vn -1.0000 -0.0000 -0.0000
vn -0.0000 -1.0000 -0.0000
vn -0.0000 -0.0000 1.0000
vn -0.0000 -0.0000 -1.0000
vt 0.375000 0.000000
vt 0.375000 0.992290
vt 0.132710 0.750000
vt 0.625000 0.000000
vt 0.625000 0.992290
vt 0.867290 0.750000
vt 0.625000 0.249045
vt 0.625000 0.257710
vt 0.867290 0.500955
vt 0.375000 0.249045
vt 0.375000 0.257710
vt 0.132710 0.500955
vt 0.625000 0.503479
vt 0.625000 0.500955
vt 0.621521 0.500955
vt 0.375000 0.503479
vt 0.375000 0.500955
vt 0.378479 0.500955
vt 0.625000 0.750000
vt 0.625000 0.746521
vt 0.621521 0.750000
vt 0.375000 0.750000
vt 0.375000 0.746521
vt 0.378479 0.750000
s 1
f 1/1/1 2/4/1 3/7/1 4/10/1
f 4/11/2 3/8/2 5/13/2 6/16/2
f 6/17/3 5/14/3 7/19/3 8/22/3
f 8/23/4 7/20/4 2/5/4 1/2/4
f 4/12/5 6/18/5 8/24/5 1/3/5
f 5/15/6 3/9/6 2/6/6 7/21/6
