# Blender 3.1.0
# www.blender.org
o SM_Door1_Plastic_VR_01
v 0.000000 2.341000 0.040000
v 1.000000 2.341000 0.040000
v 1.000000 2.341000 0.000000
v 0.000000 2.341000 0.000000
v 0.000000 2.301000 0.040000
v 0.000000 2.301000 0.000000
v 1.000000 2.301000 0.000000
v 1.000000 2.301000 0.040000
v 0.000000 2.341000 0.100000
v 1.000000 2.341000 0.100000
v 1.000000 2.341000 0.070000
v 0.000000 2.341000 0.070000
v 0.000000 2.301000 0.100000
v 0.000000 2.301000 0.070000
v 1.000000 2.301000 0.070000
v 1.000000 2.301000 0.100000
vn -0.0000 1.0000 -0.0000
vn -0.0000 -1.0000 -0.0000
vn -0.0000 -0.0000 1.0000
vn 1.0000 -0.0000 -0.0000
vn -0.0000 -0.0000 -1.0000
vn -1.0000 -0.0000 -0.0000
vt 0.451434 -0.453795
vt 0.275350 -0.453791
vt 0.744906 -1.070080
vt 0.451434 -2.861729
vt 0.275350 -2.861728
vt 0.862294 -1.128774
vt 0.392740 -2.861729
vt 0.803600 -1.128774
vt 0.686211 -0.345934
vt 0.392739 -0.453795
vt 0.686211 -2.753870
vt 0.803600 -1.070080
vt 0.686212 -2.753870
vt 0.334045 -0.453791
vt 0.744906 -1.128774
vt 0.627518 -2.753870
vt 0.744905 -2.753870
vt 0.803600 -1.128774
vt 0.627518 -0.345934
vt 0.803600 -1.187468
vt 0.744905 -0.345934
vt 0.686212 -0.345934
vt 0.334045 -2.861729
vt 0.862294 -1.187468
vt 0.612843 -0.453795
vt 0.510129 -0.453795
vt 0.876968 -1.128774
vt 0.612843 -2.861729
vt 0.510129 -2.861728
vt 0.788926 -1.128774
vt 0.568823 -2.861729
vt 0.744905 -1.128774
vt 0.334045 -0.345934
vt 0.568823 -0.453795
vt 0.334045 -2.753870
vt 0.920989 -1.128774
vt 0.495454 -2.753870
vt 0.568823 -0.453795
vt 0.876968 -1.187468
vt 0.451433 -2.753870
vt 0.392739 -2.753870
vt 0.920989 -1.187468
vt 0.451433 -0.345934
vt 0.744905 -1.187468
vt 0.392739 -0.345934
vt 0.495454 -0.345934
vt 0.568823 -2.861729
vt 0.788926 -1.187468
s 1
f 1/1/1 2/4/1 3/7/1 4/10/1
f 5/13/2 6/16/2 7/19/2 8/22/2
f 1/2/3 5/14/3 8/23/3 2/5/3
f 2/6/4 8/24/4 7/20/4 3/8/4
f 3/9/5 7/21/5 6/17/5 4/11/5
f 4/12/6 6/18/6 5/15/6 1/3/6
f 9/25/1 10/28/1 11/31/1 12/34/1
f 13/37/2 14/40/2 15/43/2 16/46/2
f 9/26/3 13/38/3 16/47/3 10/29/3
f 10/30/4 16/48/4 15/44/4 11/32/4
f 11/33/5 15/45/5 14/41/5 12/35/5
f 12/36/6 14/42/6 13/39/6 9/27/6
